<svg xmlns="http://www.w3.org/2000/svg" viewBox="0 0 1138.97 595.67"><defs><style>.boat_01_cls-1{fill:#fff;}.boat_01_cls-2{fill:red;}</style></defs><title>boat_01</title><g id="Layer_2" data-name="Layer 2"><g id="Layer_2-2" data-name="Layer 2"><path id="boat_01_path_03" d="M1069,318.33C997,370.33,913.63,381,839.63,385c-67.72,2.12-124.35,3.76-174,4.82-.91-12.49-4.92-28.13-9.28-43.25l54-57.91s45-57.33,68.33-76.33,98-89.34,140-112.67C923.23,97.12,964.4,70,1023,43.33,1081.63,22,1139,0,1139,0S1023.3,35.4,1000.63,46s-99.67,55.33-115,67.33-83.33,68-114,94-60,61.33-68.67,72c-5.22,6.42-30.94,33.48-50.57,54-3.91-13-7.44-24.77-8.6-32.48-3-20-13-37-21-44,20-11,29-31,24-48s-11-50-14-73c-6-46-32-58-32-58s0-17-3-22-21-20-45-22-45,26-45,26c-27,6-41,17-41,17s-3-4-18-3-26,23-31,31-11,27,5,57c-4,48,17,83,44,105-25,36-20,82-19,96,.68,9.55,8.81,21,13.9,27.25-56.32-1.54-112.09-4.69-180.74-9.75C81,361.67,19.39,296.61,19.39,296.61c-3.42-1.78-4.18,2.86-4.18,2.86s-4.53,17.72-6,23.93C-44,546,151.3,595.67,151.3,595.67H941c135.33,0,157.54-143.33,157.54-181.33s-13.87-91-15.54-96S1078.3,311.67,1069,318.33Z"/><g id="boat_01_path_02"><circle class="boat_01_cls-1" cx="524.3" cy="219.33" r="11"/><circle class="boat_01_cls-1" cx="614.3" cy="197.33" r="11"/></g><path id="boat_01_path_01" class="boat_01_cls-2" d="M550.3,284.33c1.25-.73,26.13-6.89,29.23-6.89,2,0,5.76,3.67,6.21,6.92.56,4.06-1.09,10-1.44,13a16.11,16.11,0,0,1-2,6l17.75,63.92L589.3,389.33l-26-23v-59a7.81,7.81,0,0,1-5-2c-2-2-8.59-10.78-9-13S549.05,285.06,550.3,284.33Z"/></g></g></svg>
