<svg xmlns="http://www.w3.org/2000/svg" viewBox="0 0 1681 626"><title>bubbles_03</title><g id="Layer_2" data-name="Layer 2"><g id="Layer_1-2" data-name="Layer 1"><circle cx="1336" cy="359" r="66"/><circle cx="645" cy="71" r="23"/><circle cx="560.5" cy="398.5" r="79.5"/><circle cx="1026" cy="153" r="43"/><circle cx="1273.5" cy="64.5" r="16.5"/><circle cx="140" cy="51" r="19"/><circle cx="1636.5" cy="182.5" r="44.5"/><circle cx="47" cy="545" r="47"/><circle cx="1592.5" cy="7.5" r="7.5"/><circle cx="1117" cy="313" r="59"/><path d="M386,208a63,63,0,0,0-58.84,85.52A37,37,0,1,0,358,330c0-.88,0-1.75-.1-2.62A63,63,0,1,0,386,208Z"/><circle cx="127.5" cy="374.5" r="61.5"/><circle cx="1376" cy="562" r="64"/></g></g></svg>