<svg xmlns="http://www.w3.org/2000/svg" viewBox="0 0 1779 1130.88"><title>bubbles_02</title><g id="Layer_2" data-name="Layer 2"><g id="Layer_1-2" data-name="Layer 1"><path d="M511.76,368.48A30.76,30.76,0,1,1,481,399.24,30.76,30.76,0,0,1,511.76,368.48ZM1142.5,98a30.5,30.5,0,1,1-30.5,30.5A30.5,30.5,0,0,1,1142.5,98Zm284-98A13.5,13.5,0,1,1,1413,13.5,13.5,13.5,0,0,1,1426.5,0ZM1248.82,371a21.18,21.18,0,1,1-21.18,21.18A21.18,21.18,0,0,1,1248.82,371ZM926.63,343.8a38.1,38.1,0,1,1-38.1,38.1A38.1,38.1,0,0,1,926.63,343.8ZM466.5,13A14.5,14.5,0,1,1,452,27.5,14.5,14.5,0,0,1,466.5,13ZM715.24,430a36.5,36.5,0,1,1-36.5,36.5A36.5,36.5,0,0,1,715.24,430ZM216.5,85A27.5,27.5,0,1,1,189,112.5,27.5,27.5,0,0,1,216.5,85ZM1752,90a27,27,0,1,1-27,27A27,27,0,0,1,1752,90ZM534.5,129A28.5,28.5,0,1,1,506,157.5,28.5,28.5,0,0,1,534.5,129Zm418-116A20.5,20.5,0,1,1,932,33.5,20.5,20.5,0,0,1,952.5,13Zm584,413a34.19,34.19,0,1,1-34.19,34.19A34.19,34.19,0,0,1,1536.5,426ZM1289.74,932A30.76,30.76,0,1,1,1259,962.74,30.76,30.76,0,0,1,1289.74,932ZM659,661.5A30.5,30.5,0,1,1,628.5,692,30.5,30.5,0,0,1,659,661.5Zm-284-98A13.5,13.5,0,1,1,361.5,577,13.5,13.5,0,0,1,375,563.5Zm177.68,371a21.18,21.18,0,1,1-21.18,21.18A21.18,21.18,0,0,1,552.68,934.5Zm322.19-27.2a38.1,38.1,0,1,1-38.1,38.1A38.1,38.1,0,0,1,874.87,907.3ZM1335,576.5a14.5,14.5,0,1,1-14.5,14.5A14.5,14.5,0,0,1,1335,576.5Zm-248.74,417a36.5,36.5,0,1,1-36.5,36.5A36.5,36.5,0,0,1,1086.26,993.5Zm484.43,64.38a36.5,36.5,0,1,1-36.5,36.5A36.5,36.5,0,0,1,1570.69,1057.88ZM1585,648.5a27.5,27.5,0,1,1-27.5,27.5A27.5,27.5,0,0,1,1585,648.5Zm-1535.5,5a27,27,0,1,1-27,27A27,27,0,0,1,49.5,653.5ZM1151.26,675a28.5,28.5,0,1,1-28.5,28.5A28.5,28.5,0,0,1,1151.26,675Zm351.05-498a28.5,28.5,0,1,1-28.5,28.5A28.5,28.5,0,0,1,1502.31,177ZM849,576.5A20.5,20.5,0,1,1,828.5,597,20.5,20.5,0,0,1,849,576.5Zm-549.81-262a20.5,20.5,0,1,1-20.5,20.5A20.5,20.5,0,0,1,299.19,314.5ZM265,989.5a34.19,34.19,0,1,1-34.19,34.19A34.19,34.19,0,0,1,265,989.5Zm1473-163a13.5,13.5,0,1,1-13.5,13.5A13.5,13.5,0,0,1,1738,826.5Zm-1289-77A33.5,33.5,0,1,1,415.5,783,33.5,33.5,0,0,1,449,749.5ZM13.5,13A13.5,13.5,0,1,1,0,26.5,13.5,13.5,0,0,1,13.5,13Zm865,68A33.5,33.5,0,1,1,845,114.5,33.5,33.5,0,0,1,878.5,81Z"/></g></g></svg>