<svg xmlns="http://www.w3.org/2000/svg" viewBox="0 0 1318 993.1"><title>bubbles_01</title><g id="Layer_2" data-name="Layer 2"><g id="Layer_1-2" data-name="Layer 1"><g id="Layer_2-2" data-name="Layer 2"><g id="Layer_1-2-2" data-name="Layer 1-2"><circle cx="964" cy="18" r="18"/><circle cx="339" cy="486" r="18"/><circle cx="728" cy="261" r="18"/><circle cx="659.5" cy="407.5" r="33.5"/><circle cx="1003.5" cy="761.75" r="26.25"/><circle cx="351.1" cy="914.1" r="22.4"/><circle cx="1161.25" cy="556.75" r="44.25"/><circle cx="30" cy="344" r="30"/><circle cx="1225" cy="838" r="35"/><circle cx="120.5" cy="830.5" r="42.5"/><circle cx="1295" cy="377" r="23"/><circle cx="88.5" cy="28.5" r="10.5"/><circle cx="897.5" cy="645.5" r="23.5"/><circle cx="1165.5" cy="234.5" r="26.5"/><circle cx="290" cy="220" r="31"/><circle cx="853" cy="962.1" r="31"/><circle cx="668" cy="769" r="42"/><circle cx="437.6" cy="650.9" r="25.6"/><circle cx="25" cy="571" r="25"/><circle cx="922" cy="426" r="26"/></g></g></g></g></svg>