<svg xmlns="http://www.w3.org/2000/svg" viewBox="0 0 1318 993.1"><title>bubbles_01</title><g id="Layer_2" data-name="Layer 2"><g id="Layer_1-2" data-name="Layer 1"><path d="M964,0a18,18,0,1,1-18,18A18,18,0,0,1,964,0ZM339,468a18,18,0,1,1-18,18A18,18,0,0,1,339,468ZM728,243a18,18,0,1,1-18,18A18,18,0,0,1,728,243ZM659.5,374A33.5,33.5,0,1,1,626,407.5,33.5,33.5,0,0,1,659.5,374Zm344,361.5a26.25,26.25,0,1,1-26.25,26.25A26.25,26.25,0,0,1,1003.5,735.5ZM351.1,891.7a22.4,22.4,0,1,1-22.4,22.4A22.4,22.4,0,0,1,351.1,891.7Zm810.15-379.2A44.25,44.25,0,1,1,1117,556.75,44.25,44.25,0,0,1,1161.25,512.5ZM30,314A30,30,0,1,1,0,344,30,30,0,0,1,30,314ZM1225,803a35,35,0,1,1-35,35A35,35,0,0,1,1225,803ZM120.5,788A42.5,42.5,0,1,1,78,830.5,42.5,42.5,0,0,1,120.5,788ZM1295,354a23,23,0,1,1-23,23A23,23,0,0,1,1295,354ZM88.5,18A10.5,10.5,0,1,1,78,28.5,10.5,10.5,0,0,1,88.5,18Zm809,604A23.5,23.5,0,1,1,874,645.5,23.5,23.5,0,0,1,897.5,622Zm268-414a26.5,26.5,0,1,1-26.5,26.5A26.5,26.5,0,0,1,1165.5,208ZM290,189a31,31,0,1,1-31,31A31,31,0,0,1,290,189ZM853,931.1a31,31,0,1,1-31,31A31,31,0,0,1,853,931.1ZM668,727a42,42,0,1,1-42,42A42,42,0,0,1,668,727ZM437.6,625.3A25.6,25.6,0,1,1,412,650.9,25.6,25.6,0,0,1,437.6,625.3ZM25,546A25,25,0,1,1,0,571,25,25,0,0,1,25,546ZM922,400a26,26,0,1,1-26,26A26,26,0,0,1,922,400Z"/></g></g></svg>