<svg xmlns="http://www.w3.org/2000/svg" viewBox="0 0 1647 1299.08"><title>bubbles_03</title><g id="Layer_2" data-name="Layer 2"><g id="Layer_1-2" data-name="Layer 1"><path d="M1271.91,536.19A31.79,31.79,0,1,1,1240.12,568,31.79,31.79,0,0,1,1271.91,536.19ZM712,364a23,23,0,1,1-23,23A23,23,0,0,1,712,364ZM533,510a47,47,0,1,1-47,47A47,47,0,0,1,533,510Zm474-226a36,36,0,1,1-36,36A36,36,0,0,1,1007,284Zm510,846.58a36,36,0,1,1-36,36A36,36,0,0,1,1517,1130.58ZM725,774a49,49,0,1,1-49,49A49,49,0,0,1,725,774ZM486,853a41.5,41.5,0,1,1-41.5,41.5A41.5,41.5,0,0,1,486,853ZM77.25,1166.58a43.75,43.75,0,1,1-43.75,43.75A43.75,43.75,0,0,1,77.25,1166.58ZM389,169a49,49,0,1,1-49,49A49,49,0,0,1,389,169Zm914.7,1032.08a49,49,0,1,1-49,49A49,49,0,0,1,1303.7,1201.08ZM1528.53,872A37.53,37.53,0,1,1,1491,909.53,37.53,37.53,0,0,1,1528.53,872Zm-1313,22.56a52.5,52.5,0,1,1-52.5,52.5A52.5,52.5,0,0,1,215.5,894.56ZM1254.5,215a16.5,16.5,0,1,1-16.5,16.5A16.5,16.5,0,0,1,1254.5,215ZM121,199a19,19,0,1,1-19,19A19,19,0,0,1,121,199ZM1617.5,320a29.5,29.5,0,1,1-29.5,29.5A29.5,29.5,0,0,1,1617.5,320ZM37.5,684A37.5,37.5,0,1,1,0,721.5,37.5,37.5,0,0,1,37.5,684ZM1581.5,0a7.5,7.5,0,1,1-7.5,7.5A7.5,7.5,0,0,1,1581.5,0ZM1086.42,507.77A28.42,28.42,0,1,1,1058,536.19,28.42,28.42,0,0,1,1086.42,507.77ZM340,1193.24a28.42,28.42,0,1,1-28.42,28.42A28.42,28.42,0,0,1,340,1193.24ZM999.42,794.58A28.42,28.42,0,1,1,971,823,28.42,28.42,0,0,1,999.42,794.58Zm-390.92,418a37.5,37.5,0,1,1-37.5,37.5A37.5,37.5,0,0,1,608.5,1212.58ZM830.14,991.72A46.14,46.14,0,1,1,784,1037.86,46.14,46.14,0,0,1,830.14,991.72ZM108.5,510A31.5,31.5,0,1,1,77,541.5,31.5,31.5,0,0,1,108.5,510ZM1150.67,960.22a44.17,44.17,0,1,1-44.17,44.17A44.17,44.17,0,0,1,1150.67,960.22ZM320,652.5A31.5,31.5,0,1,1,288.5,684,31.5,31.5,0,0,1,320,652.5Zm983.7,38.17a30.83,30.83,0,1,1-30.83,30.83A30.83,30.83,0,0,1,1303.7,690.67Z"/></g></g></svg>