<svg xmlns="http://www.w3.org/2000/svg" viewBox="0 0 1779 1130.88"><title>bubbles_02</title><g id="Layer_2" data-name="Layer 2"><g id="Layer_1-2" data-name="Layer 1"><circle cx="511.76" cy="399.24" r="30.76"/><circle cx="1142.5" cy="128.5" r="30.5"/><circle cx="1426.5" cy="13.5" r="13.5"/><circle cx="1248.82" cy="392.18" r="21.18"/><circle cx="926.63" cy="381.9" r="38.1"/><circle cx="466.5" cy="27.5" r="14.5"/><circle cx="715.24" cy="466.5" r="36.5"/><circle cx="216.5" cy="112.5" r="27.5"/><circle cx="1752" cy="117" r="27"/><circle cx="534.5" cy="157.5" r="28.5"/><circle cx="952.5" cy="33.5" r="20.5"/><circle cx="1536.5" cy="460.19" r="34.19"/><circle cx="1289.74" cy="962.74" r="30.76"/><circle cx="659" cy="692" r="30.5"/><circle cx="375" cy="577" r="13.5"/><circle cx="552.68" cy="955.68" r="21.18"/><circle cx="874.87" cy="945.4" r="38.1"/><circle cx="1335" cy="591" r="14.5"/><circle cx="1086.26" cy="1030" r="36.5"/><circle cx="1570.69" cy="1094.38" r="36.5"/><circle cx="1585" cy="676" r="27.5"/><circle cx="49.5" cy="680.5" r="27"/><circle cx="1151.26" cy="703.5" r="28.5"/><circle cx="1502.31" cy="205.5" r="28.5"/><circle cx="849" cy="597" r="20.5"/><circle cx="299.19" cy="335" r="20.5"/><circle cx="265" cy="1023.69" r="34.19"/><circle cx="1738" cy="840" r="13.5"/><circle cx="449" cy="783" r="33.5"/><circle cx="13.5" cy="26.5" r="13.5"/><circle cx="878.5" cy="114.5" r="33.5"/></g></g></svg>