<svg xmlns="http://www.w3.org/2000/svg" viewBox="0 0 1647 1299.08"><title>bubbles_03</title><g id="Layer_2" data-name="Layer 2"><g id="Layer_1-2" data-name="Layer 1"><g id="Layer_2-2" data-name="Layer 2"><g id="Layer_1-2-2" data-name="Layer 1-2"><circle cx="1271.91" cy="567.98" r="31.79"/><circle cx="712" cy="387" r="23"/><circle cx="533" cy="557" r="47"/><circle cx="1007" cy="320" r="36"/><circle cx="1517" cy="1166.58" r="36"/><circle cx="725" cy="823" r="49"/><circle cx="486" cy="894.53" r="41.5"/><circle cx="77.25" cy="1210.33" r="43.75"/><circle cx="389" cy="218" r="49"/><circle cx="1303.7" cy="1250.08" r="49"/><circle cx="1528.53" cy="909.53" r="37.53"/><circle cx="215.5" cy="947.06" r="52.5"/><circle cx="1254.5" cy="231.5" r="16.5"/><circle cx="121" cy="218" r="19"/><circle cx="1617.5" cy="349.5" r="29.5"/><circle cx="37.5" cy="721.5" r="37.5"/><circle cx="1581.5" cy="7.5" r="7.5"/><circle cx="1086.42" cy="536.19" r="28.42"/><circle cx="340" cy="1221.66" r="28.42"/><circle cx="999.42" cy="823" r="28.42"/><circle cx="608.5" cy="1250.08" r="37.5"/><circle cx="830.14" cy="1037.86" r="46.14"/><circle cx="108.5" cy="541.5" r="31.5"/><circle cx="1150.67" cy="1004.39" r="44.17"/><circle cx="320" cy="684" r="31.5"/><circle cx="1303.7" cy="721.5" r="30.83"/></g></g></g></g></svg>