<svg xmlns="http://www.w3.org/2000/svg" viewBox="0 0 1848.6 433.04"><title>bubbles_04</title><g id="Layer_2" data-name="Layer 2"><g id="Layer_1-2" data-name="Layer 1"><path d="M372.6,14a8,8,0,1,1-8,8A8,8,0,0,1,372.6,14Zm694,132a34,34,0,1,1-34,34A34,34,0,0,1,1066.6,146Zm385-46a11,11,0,1,1-11,11A11,11,0,0,1,1451.6,100Zm178,164.8A34.59,34.59,0,1,1,1595,299.39,34.59,34.59,0,0,1,1629.61,264.8Zm-112,31.2a29,29,0,1,1-29,29A29,29,0,0,1,1517.6,296Zm169-85a19,19,0,1,1-19,19A19,19,0,0,1,1686.6,211Zm-968-52a26,26,0,1,1-26,26A26,26,0,0,1,718.6,159Zm-548-51a27,27,0,1,1-27,27A27,27,0,0,1,170.6,108ZM34.2,225A34.2,34.2,0,1,1,0,259.2,34.2,34.2,0,0,1,34.2,225Zm493.93,77.87a22.47,22.47,0,1,1-22.47,22.47A22.47,22.47,0,0,1,528.13,302.87ZM1185,349a42,42,0,1,1-42,42A42,42,0,0,1,1185,349ZM1837.6,0a11,11,0,1,1-11,11A11,11,0,0,1,1837.6,0ZM796.1,55a13.5,13.5,0,1,1-13.5,13.5A13.5,13.5,0,0,1,796.1,55Zm92.41,277.42a34.29,34.29,0,1,1-34.29,34.29A34.29,34.29,0,0,1,888.51,332.42Z"/></g></g></svg>