<svg xmlns="http://www.w3.org/2000/svg" viewBox="0 0 2070 899"><title>cloud_scene_04</title><g id="Layer_2" data-name="Layer 2"><g id="Layer_1-2" data-name="Layer 1"><polygon points="245.86 322.46 245.86 322.46 245.87 322.46 245.86 322.46"/><polygon points="1918.12 835.99 1918.11 835.99 1918.11 835.99 1918.12 835.99"/><path d="M1038.34,730.79a8.93,8.93,0,0,0-11.57,5,22.17,22.17,0,0,0-16.15-14.71,45.49,45.49,0,0,0-63.23-47.9A76.21,76.21,0,0,0,928.9,642a54,54,0,1,0-100.43-39.08,55.56,55.56,0,0,0-27.76-18.38c-.79-1.8-1.65-3.57-2.58-5.3a71.1,71.1,0,0,0-135.64-42.45q-.67,1.93-1.23,3.89a97.94,97.94,0,0,0-119,11.63A60.2,60.2,0,0,0,515,529.59a17.5,17.5,0,1,0-29.63-4.22,59.57,59.57,0,0,0-20.63,6.17,43,43,0,1,0-82.52,20.87,87.33,87.33,0,0,0-17.59,5.14,88.27,88.27,0,0,0-30.58-22.83A51.49,51.49,0,1,0,247,497.08a51.68,51.68,0,0,0-30.75,3.06,66.9,66.9,0,0,0-5.39-45.2,51,51,0,0,0,50-32.76,51,51,0,0,0-15-99.72c-.6,0-1.24,0-1.86,0v-.66a91.51,91.51,0,0,0-8.55-38.74c14.2-12.52,23.86-26.32,26.56-37l.08-.06a32.61,32.61,0,0,0,59.13,2.26,48.11,48.11,0,0,0,4-3.17,43.08,43.08,0,0,0,57.45,12.06q1.3-.79,2.55-1.66a21.55,21.55,0,0,0,40.27,0l.15,0a12,12,0,1,0,5.9-23.35h0a12,12,0,0,0-9.7,1.72,21.57,21.57,0,0,0-18.72-7.53,43.14,43.14,0,0,0-23.73-44.86A55.15,55.15,0,0,0,288,119.74a48.31,48.31,0,0,0-4.86,1.4,75.5,75.5,0,0,0-34.3-18.78A82.91,82.91,0,0,0,90,55.66q-.78,2.25-1.44,4.54A113.62,113.62,0,0,0,21.62,43H0V899H25v-.35a80.62,80.62,0,0,0,59.47-23.91q2-2,3.87-4.2A40.45,40.45,0,0,0,161.62,852h.28a22.56,22.56,0,0,0,7.67-1.33A88,88,0,0,0,310,780a89,89,0,0,0-.53-9.65,51.5,51.5,0,0,0,65.62-25.9,43,43,0,0,0,13.6,4.14,76.66,76.66,0,0,0-3.69,7,75.79,75.79,0,0,0,137,64.89q5.44.54,11,.54a110.49,110.49,0,0,0,64-20.3,51.49,51.49,0,0,0,81-42.2q0-1.31-.07-2.61a42,42,0,0,0,34.09,15c0,.51,0,1,0,1.54a41.5,41.5,0,0,0,78.16,17.41,42.38,42.38,0,0,0,71.39-7.65,51.79,51.79,0,0,0,4.89-5.55,61.45,61.45,0,0,0,8.54.3c8.87,3.41,20.71,5.5,33.73,5.5,16.19,0,30.58-3.22,39.66-8.22A22.46,22.46,0,0,0,979.29,771l.38-.13a29.34,29.34,0,0,0,50.3-24.41,8.93,8.93,0,1,0,8.37-15.63Z"/><path d="M2070,54h-70.56a108.89,108.89,0,0,0-11.74-.64,107.73,107.73,0,0,0-101.76,143,65.42,65.42,0,0,0-86.81,74.23,27.86,27.86,0,1,0-18.28,48.88c.86,0,1.71,0,2.55-.12q2,.57,4.08,1.13c2.72,13.23,18.71,23.4,38,23.4,13.48,0,25.35-5,32.21-12.44l3.92.37c16.78,8.65,45.45,14.35,78,14.35,7.14,0,14.06-.3,20.74-.81a42,42,0,0,0,8.92,9.87c-.14.5-.28,1-.41,1.52a114.13,114.13,0,0,0-118.72,72.91,49,49,0,0,0,7.91,97.76,113.88,113.88,0,0,0,26.25,31,87.13,87.13,0,0,0-2,70.23,51.73,51.73,0,0,0-30,22.22,111.41,111.41,0,0,0-54.56-47.73,51.5,51.5,0,0,0-26.94-41,22,22,0,1,0-36.71-4.62,51.53,51.53,0,0,0-29.37,19.82,110.19,110.19,0,0,0-29.76-9,60,60,0,0,0-85.25-68.76,43,43,0,1,0-82.52,20.87,88.08,88.08,0,0,0-70.16,105.69l-1.76.29a27,27,0,0,0-47.59,25.45,87.84,87.84,0,0,0-22.29,40.5,56,56,0,0,0-94.78,20.57A40,40,0,1,0,1192.83,730a53.71,53.71,0,0,0-14,11,9.51,9.51,0,1,0-7.32,14A24.87,24.87,0,0,0,1171,760c0,23.2,32.46,42,72.5,42a124.3,124.3,0,0,0,14.17-.81c14.38,5.52,32.34,8.81,51.83,8.81,23.33,0,44.47-4.7,59.89-12.32a49.06,49.06,0,0,0,59.15,20.12,114.13,114.13,0,0,0,148.2,5.71,49,49,0,0,0,88.87-26.86,64.72,64.72,0,0,0,61.92,16.66,111.12,111.12,0,0,0,113.07-35.44c.18.44.34.88.54,1.31a48.38,48.38,0,0,0,77,56.82c.4-.4.83-.83,1.23-1.27l.44.44A87.11,87.11,0,0,0,2002.86,858H2070Z"/></g></g></svg>