<svg xmlns="http://www.w3.org/2000/svg" viewBox="0 0 2060 709.38"><title>cloud_scene_06</title><g id="Layer_2" data-name="Layer 2"><g id="Layer_2_copy" data-name="Layer 2 copy"><path d="M2060,8a87.16,87.16,0,0,0-118,48.47,87.18,87.18,0,0,0-77.87,86.67v.62c-.59,0-1.2,0-1.77,0a48.4,48.4,0,0,0-48.3,45.72q-2.65,2.06-5.14,4.31A88.16,88.16,0,0,0,1787,191l-1.43,0a43,43,0,1,0-84.34-15.48,60,60,0,0,0-53.17-.66,17.49,17.49,0,1,0-24.28,21.3,60,60,0,0,0,16.11,82.17A75,75,0,0,0,1690,377.24a50.75,50.75,0,0,0-7,25.73c0,.25,0,.5,0,.75a42.82,42.82,0,0,0-19.83,9.47,111,111,0,0,0-130.13-19.33,51,51,0,0,0-37.54-74.33,22,22,0,1,0-38.24,9.74,51.25,51.25,0,0,0-13.21,14.8,88,88,0,0,0-71.94,43.29,47.59,47.59,0,0,0-67.68-48.2,54,54,0,1,0-99.18-14,47.4,47.4,0,0,0-25,20.06,48.11,48.11,0,0,0-2.37,4.35,27,27,0,0,0-10.22-7.34,8.54,8.54,0,1,0-10.37-2,27,27,0,0,0-21.32,10.7A28.93,28.93,0,0,0,1089.12,379a28.81,28.81,0,0,0,10.3,16.73,66.75,66.75,0,0,0-33.06,49.16l-.06.47c-.44-.09-.91-.15-1.34-.21a37.1,37.1,0,0,0-40.9,27.76,51,51,0,0,0-39.22,4.67,61.44,61.44,0,0,0-5.32-8.91A33.49,33.49,0,0,0,961,410.15a17.49,17.49,0,1,0-29.87,12.69A33.34,33.34,0,0,0,924,443.23a61.52,61.52,0,0,0-49.82,34.35,44,44,0,0,0-55.48,7.53,88.05,88.05,0,0,0-19.52-98.38,55.78,55.78,0,0,0,33.19-15,38.5,38.5,0,1,0,31.83-64.59,33.5,33.5,0,1,0-56.5-30.49A55.93,55.93,0,0,0,797,275.05a33.6,33.6,0,0,0-17.71-19.11,57.5,57.5,0,1,0-97.43-54,88.81,88.81,0,0,0-24-.24,76.52,76.52,0,0,0-68.38-58.44A43,43,0,1,0,517,112c0,1,0,2,.12,3a60,60,0,0,0-23.19,14.19A17.5,17.5,0,1,0,478.46,155a60,60,0,0,0,28.73,69.64A76.06,76.06,0,0,0,519.9,262a74.6,74.6,0,0,0-15.16,10.19,33.42,33.42,0,0,0-22.11-3.68,44.49,44.49,0,0,0-82.4,33.57,100.82,100.82,0,0,0-40.9-9.39,110.82,110.82,0,0,0-30.68-55,60,60,0,0,0-97.12-70.37A60.21,60.21,0,0,0,219,166c-1.17,0-2.33,0-3.49.11A87.15,87.15,0,0,0,66.19,141.87l-.39.48c-.43-.4-.91-.78-1.35-1.14a48.32,48.32,0,0,0-28.27-10.73A69.78,69.78,0,0,0,41,105,70,70,0,0,0,0,41.26V582.14a147.52,147.52,0,0,0,225.52-37.36,44.5,44.5,0,0,0,43-27.47,48.36,48.36,0,0,0,81.85,12.86A76.5,76.5,0,0,0,501.18,539a48.36,48.36,0,0,0,87.62-17.65H589c9.71,7.26,28.3,12.17,49.64,12.17,15.95,0,30.34-2.74,40.66-7.16a51,51,0,0,0,87.58,22.71,44.1,44.1,0,0,0,7.18,10.11,89,89,0,0,0-1,9.61A88,88,0,1,0,948.42,563a61.37,61.37,0,0,0,20.27-11.13,51,51,0,0,0,90-14.75,37,37,0,0,0,38.79,3.1c-.08.59-.16,1.17-.22,1.74a25.64,25.64,0,0,0-17,31.09l-.13.44a33.49,33.49,0,0,0-9.84,63,10.19,10.19,0,1,0,12,3.89,25.3,25.3,0,0,0,24.31-5.57,51.92,51.92,0,0,0,86.06-28.12,87.19,87.19,0,0,0,108.83-53.4A88.17,88.17,0,0,0,1323,556c1.68,0,3.35-.05,5-.14a64.94,64.94,0,0,0,87.32,71.48,109,109,0,0,0,214.6-22.18l0-.78c.73.08,1.49.11,2.21.14A60.52,60.52,0,0,0,1692,524.24a51,51,0,0,0,76.27-56.4A42.79,42.79,0,0,0,1792,475c1.41,0,2.79-.07,4.16-.2a33.5,33.5,0,0,0,64.45,9.13,33.5,33.5,0,1,0-25.92-57,42.83,42.83,0,0,0-11.3-24.31,64.52,64.52,0,0,0,56.94-54.86,87.73,87.73,0,0,0,54,25.81A88,88,0,0,0,2060,487.37ZM1281.9,361.59c-.23-.27-.48-.53-.72-.79.52-.25,1-.52,1.53-.78C1282.43,360.53,1282.15,361.05,1281.9,361.59Zm735.94-121.92c2.66-.61,5.18-1.3,7.56-2.06q-3,2.49-5.69,5.22Q2018.8,241.22,2017.84,239.66Z"/></g></g></svg>