<svg xmlns="http://www.w3.org/2000/svg" viewBox="0 0 579.01 373.45"><title>cloud_02</title><g id="Layer_2" data-name="Layer 2"><g id="Layer_3" data-name="Layer 3"><path class="cls-1" d="M494.39,153.49c-1,0-2.07,0-3.1.06,0-.36,0-.73,0-1.09a152.48,152.48,0,0,0-298.42-44.17A90.83,90.83,0,0,0,65.78,191.52a91.58,91.58,0,0,0,.85,12.4A44.26,44.26,0,0,0,34.39,233.3,17.82,17.82,0,1,0,28,254.43a58.56,58.56,0,0,0,58,66.94,58.4,58.4,0,0,0,42.42-18.2l.76.26A44.85,44.85,0,0,0,190.82,310c18.14,10,46.86,16.42,79.19,16.42,37.33,0,69.85-8.59,86.83-21.29l.36,0A84.64,84.64,0,0,0,519.33,319a84.64,84.64,0,0,0-24.95-165.51Z"/></g></g></svg>
