<svg xmlns="http://www.w3.org/2000/svg" viewBox="0 0 698.48 398.52"><title>cloud_04</title><g id="Layer_2" data-name="Layer 2"><g id="Layer_3" data-name="Layer 3"><path class="cls-1" d="M671.91,242.54a26.47,26.47,0,0,0-19.83,8.93,47.6,47.6,0,0,0-44.11-6,95.19,95.19,0,0,0-75-83.14A121.7,121.7,0,1,0,301,88.95,167.56,167.56,0,0,0,44.91,220.4,72,72,0,0,0,98.45,354.05,167.53,167.53,0,0,0,316,362.43,72,72,0,0,0,446.45,323a95.07,95.07,0,0,0,139-5.56,47.55,47.55,0,0,0,86.14-21.79l.33,0a26.57,26.57,0,1,0,0-53.14Z"/></g></g></svg>
