<svg xmlns="http://www.w3.org/2000/svg" viewBox="0 0 654.8 417.88"><defs><style>.cls-1{fill:#fff;}</style></defs><title>cloud_03</title><g id="Layer_2" data-name="Layer 2"><g id="Layer_3" data-name="Layer 3"><path class="cls-1" d="M568.35,225.12a87.1,87.1,0,0,0-12.47.91,80.52,80.52,0,0,0-37.53-60.6,25.53,25.53,0,1,0-29.52-11.13,80.74,80.74,0,0,0-37.5,2.71,143.84,143.84,0,0,0,.76-14.78,142.22,142.22,0,1,0-276.58,46.64,86.37,86.37,0,0,0-114.61,98,36.78,36.78,0,1,0-24.13,64.53c1.14,0,2.26-.06,3.37-.16q2.58.75,5.38,1.49c3.59,17.47,24.7,30.89,50.22,30.89,17.8,0,33.46-6.54,42.52-16.42l5.17.49c22.15,11.42,60,18.95,102.95,18.95,9.42,0,18.56-.39,27.38-1.07,12.08,19,39.77,32.3,72,32.3,32.08,0,59.65-13.16,71.83-32,7.62.45,15.6.58,23.81.34C468,385.43,492,381,509.06,374.44a86.44,86.44,0,1,0,59.29-149.32Z"/></g></g></svg>