<svg xmlns="http://www.w3.org/2000/svg" viewBox="0 0 2348 1147.98"><title>cloud_scene_03</title><g id="Layer_2" data-name="Layer 2"><g id="Layer_1-2" data-name="Layer 1"><path d="M2312.8,174c.07-.48.15-1,.2-1.45a37.45,37.45,0,0,0-52.77-38.36A58.38,58.38,0,0,0,2154.15,99.8,24.54,24.54,0,0,0,2120,93.44l0,0q-.62.42-1.21.89a116.77,116.77,0,0,0-214.26,4.46c-1.4-.26-2.8-.48-4.23-.65a64.62,64.62,0,0,0-68.55,43.23,61.45,61.45,0,0,0-18.71-8.05,53.17,53.17,0,0,0-63-73.07A83.2,83.2,0,0,0,1598.4,102h-.19a64.31,64.31,0,0,0-46.87,20.22,43.08,43.08,0,0,0-64.9,37.15c0,1.4.07,2.78.2,4.15a15.49,15.49,0,0,0-29,4.65c-5.41-22-26-38.37-50.61-38.37a54.63,54.63,0,0,0-7.5.52A46.25,46.25,0,0,0,1376.9,95.4a14.82,14.82,0,0,0,10.75-14c0-8.13-6.88-14.73-15.36-14.73s-15.36,6.59-15.36,14.73a14.2,14.2,0,0,0,2.22,7.63,50.86,50.86,0,0,0-7.89-.62,50.34,50.34,0,0,0-14.67,2.18A79.54,79.54,0,0,0,1337,82c0-45.3-38.32-82-85.58-82s-85.58,36.72-85.58,82a78.79,78.79,0,0,0,4.73,26.9,53.85,53.85,0,0,0-18-3.09c-28.69,0-51.95,22.29-51.95,49.79a48,48,0,0,0,1,9.83,22.6,22.6,0,0,0-14.52-5.21,23.11,23.11,0,0,0-4.88.52,37.11,37.11,0,0,0-28.34-10.08,10.44,10.44,0,0,0-1.35.13v-.48a66.87,66.87,0,0,0-132-9.4,39.83,39.83,0,0,0-50.71,24.53h0c-.31.88-.57,1.77-.81,2.67a43.16,43.16,0,0,0-30.92,5.35A67.13,67.13,0,0,0,712.36,148.2a28.23,28.23,0,0,0-39.83-2.71q-.65.56-1.26,1.17a134.28,134.28,0,0,0-239.66,20.09A61.8,61.8,0,0,0,398,145.3a53.17,53.17,0,0,0-63-73A83.2,83.2,0,0,0,183.4,114h-.19a64.31,64.31,0,0,0-46.87,20.22,43.08,43.08,0,0,0-64.9,37.15,25.2,25.2,0,0,0,.09,2.61h-.82a15.49,15.49,0,0,0-25.64,0H0v974H2348V174Z"/></g></g></svg>