<svg xmlns="http://www.w3.org/2000/svg" viewBox="0 0 2076 1091.97"><title>cloud_scene_05</title><g id="Layer_2" data-name="Layer 2"><g id="Layer_2_copy" data-name="Layer 2 copy"><path d="M2076,1092V51.88a148.13,148.13,0,0,0-49.63,58,87.08,87.08,0,0,0-88.88,56.18c-1.16-.07-2.32-.11-3.49-.11a60.21,60.21,0,0,0-12.53,1.32,60,60,0,0,0-100.34,8.3,51.72,51.72,0,0,0-15.27-12.49,22,22,0,1,0-36.71-4.62,51.53,51.53,0,0,0-29.37,19.82,110.19,110.19,0,0,0-29.76-9,60,60,0,0,0-85.25-68.76,43,43,0,1,0-82.52,20.87,88.08,88.08,0,0,0-70.16,105.69l-1.76.29a27,27,0,0,0-43.78-4,28,28,0,0,0-46.84,30.52A33.56,33.56,0,0,0,1356,275.05a55.93,55.93,0,0,0-10.69,1.61,33.5,33.5,0,0,0-66.22,4.51A40,40,0,0,0,1227.25,309a19,19,0,1,0,8.61,36.24A40,40,0,0,0,1256,357.71a38.49,38.49,0,0,0,64.63,14,55.81,55.81,0,0,0,29.37,14.5v4.41a88.06,88.06,0,0,0-15.7,94.45,44,44,0,0,0-55.48-7.53,61.52,61.52,0,0,0-110.65,0,51,51,0,0,0-39.22-4.67,37.1,37.1,0,0,0-40.9-27.76c-.43.06-.9.12-1.34.21l-.06-.47a66.75,66.75,0,0,0-33.06-49.16,28.93,28.93,0,0,0-33.18-47.27,29.15,29.15,0,0,0-3.4,2.44,27,27,0,0,0-21.32-10.7,8.54,8.54,0,1,0-10.37,2,27,27,0,0,0-10.22,7.34,48.12,48.12,0,0,0-2.37-4.35,47.4,47.4,0,0,0-25-20.06,54,54,0,1,0-99.18,14,47.59,47.59,0,0,0-67.68,48.2,88,88,0,0,0-156.37,9.06,110.27,110.27,0,0,0-40.77-14.33A27,27,0,0,0,530,387.25c0,.12,0,.25,0,.37a110.9,110.9,0,0,0-34.29,20.06A87.36,87.36,0,0,0,474.7,378,88,88,0,0,0,544,292c0-2.63-.12-5.24-.35-7.81a51.34,51.34,0,0,0,42.52-5.52,48.06,48.06,0,0,0,70.86,30A16.94,16.94,0,1,0,671.24,296a48,48,0,0,0,2.51-54.13,25.52,25.52,0,0,0,30.68-24.25h0a25.54,25.54,0,0,0-38.09-23,39.81,39.81,0,0,0-74.08-17.17,16.74,16.74,0,0,0-23.56-2.3q-.39.32-.77.67a79.56,79.56,0,0,0-123-19.53,43,43,0,0,0-57.06-13.82,48.39,48.39,0,0,0-42.24-24.83c-.57,0-1.18,0-1.77,0v-.62A87.14,87.14,0,0,0,206.25,46,87.17,87.17,0,0,0,47,58.85a51.84,51.84,0,0,0-47,1V1092ZM871.82,360.8c-.24.26-.49.52-.72.79-.26-.53-.53-1.05-.81-1.57C870.8,360.28,871.31,360.55,871.82,360.8Z"/></g></g></svg>