<svg xmlns="http://www.w3.org/2000/svg" viewBox="0 0 396 226.89"><defs><style>.cls-1{fill:#fff;}</style></defs><g id="Layer_2" data-name="Layer 2"><g id="Layer_3" data-name="Layer 3"><path class="cls-1" d="M396,91.48a30.7,30.7,0,0,0-46.59-26.26,47.85,47.85,0,0,0-89.62-18,20.12,20.12,0,0,0-29.28-1.1,95.72,95.72,0,0,0-174,23.83c-1.16-.08-2.33-.13-3.51-.13a53,53,0,1,0,30.7,96.1A95.69,95.69,0,0,0,201,175.76a61.73,61.73,0,0,0,55-6.84,57.76,57.76,0,0,0,86.21,33.58,20.36,20.36,0,1,0,16.61-15.67A57.73,57.73,0,0,0,360,121.7a30.67,30.67,0,0,0,36-30.23Z"/></g></g></svg>
