<svg xmlns="http://www.w3.org/2000/svg" viewBox="0 0 611.34 350.27"><defs><style>.cls-1{fill:#fff;}</style></defs><title>cloud_06</title><g id="Layer_2" data-name="Layer 2"><g id="Layer_3" data-name="Layer 3"><path class="cls-1" d="M611.34,141.22a47.39,47.39,0,0,0-71.92-40.54A73.87,73.87,0,0,0,401.07,72.89a31.06,31.06,0,0,0-45.21-1.7A147.77,147.77,0,0,0,87.18,108c-1.79-.12-3.6-.2-5.42-.2a81.76,81.76,0,1,0,47.39,148.36,147.72,147.72,0,0,0,181.22,15.21,95.3,95.3,0,0,0,85-10.56,89.18,89.18,0,0,0,133.09,51.83,31.43,31.43,0,1,0,25.65-24.2,89.12,89.12,0,0,0,1.7-100.54,47.35,47.35,0,0,0,55.58-46.66Z"/></g></g></svg>