<svg xmlns="http://www.w3.org/2000/svg" viewBox="0 0 2196 1499.24"><title>cloud_scene_02</title><g id="Layer_2" data-name="Layer 2"><g id="Layer_1-2" data-name="Layer 1"><path d="M2102.78,9.26a96.56,96.56,0,0,0-134.22,113.28,74.29,74.29,0,0,0-33.46,37.38,45.06,45.06,0,0,0-78.66-1,19.19,19.19,0,1,0-31.65,17c.45.39.91.75,1.38,1.1q.75,1.18,1.6,2.43c-4.6,8.09-.93,20.61,9.08,29.39,7,6.12,15.38,8.94,22.33,8.18l1.86,2c.08.21.19.43.27.65A63,63,0,0,0,1902.19,329a63,63,0,0,0-3.35,55.27,62.6,62.6,0,0,0-28.28,9.39A54,54,0,1,0,1807.15,459a41,41,0,1,0,67.68,43.93A62.7,62.7,0,0,0,1904,510h.73a135.7,135.7,0,0,0,9.2,36.91,166.32,166.32,0,0,0-59.26,46.69,106,106,0,0,0-157.14-15.87,50,50,0,0,0-85.38,52l.53.86a61,61,0,0,0-55.31,99.66,191,191,0,0,0-48.87-6.3q-4.09,0-8.13.17a96.52,96.52,0,1,0-184.27-52.3,38.52,38.52,0,0,0-49.61-8.39A60,60,0,0,0,1154,640.9a25.25,25.25,0,0,0-35.62-2.43l-1.13,1a120.12,120.12,0,0,0-218.41,29.92c-1.46-.1-2.93-.16-4.41-.16a66.36,66.36,0,0,0-53.12,26.48,111.73,111.73,0,0,0-92.75-1.34,148,148,0,0,0-33.09-50.17,69.08,69.08,0,0,0,11.94-31c11.8-.76,22.34-2.91,30.12-5.9A45.1,45.1,0,1,0,782,529.92a42,42,0,0,0-19.58-31.61A13.32,13.32,0,1,0,747,492.5a42.12,42.12,0,0,0-19.56,1.41,75,75,0,0,0,.4-7.71,74.19,74.19,0,1,0-144.28,24.33,45.06,45.06,0,0,0-49.26,12.31,96.26,96.26,0,0,0-47.67-25A96.56,96.56,0,0,0,364.93,384c0-1.16.07-2.33.07-3.5a96.11,96.11,0,0,0-23.09-62.63,55,55,0,1,0-51.41-96.64,38.32,38.32,0,0,0-22.58-9.15c0-1,.09-2,.09-3.08a57,57,0,0,0-83.58-50.42C154.74,136.39,116.39,123,74.5,123A189,189,0,0,0,7.79,135H0V1499.24H2196V4.69A192.27,192.27,0,0,0,2102.78,9.26ZM114,709l.44.4-.44.48Z"/></g></g></svg>