<svg xmlns="http://www.w3.org/2000/svg" viewBox="0 0 2199 1563"><title>cloud_scene_01</title><g id="Layer_2" data-name="Layer 2"><g id="Layer_1-2" data-name="Layer 1"><path d="M2069.31,98.3a41.49,41.49,0,0,0-61.1,25.95,76.26,76.26,0,0,0-14.53-1.51,27,27,0,0,0-50.5,18.84,75.79,75.79,0,0,0-14.46,17.09,46,46,0,0,0-56.61-29.25,48.37,48.37,0,0,0-80.87,50.7,27,27,0,0,0-16.23,9.61,27,27,0,1,0-29.56,42.57,87.62,87.62,0,0,0-3.18,10.56,39.82,39.82,0,0,0-44.74,47.8,19.41,19.41,0,0,0-13.12,13.92,7.82,7.82,0,1,0-2.09,9.45,25.69,25.69,0,0,0,45.53,18l.34.09a19.66,19.66,0,0,0,26,1.78,61,61,0,0,0,83.23,20.1,53.51,53.51,0,0,0,1.61,5.54,51.91,51.91,0,0,0,78.11,33.37,25.29,25.29,0,0,0,17.25,10A87.73,87.73,0,0,0,1908,465.69c0,1.14,0,2.27.07,3.4a48,48,0,0,0-41.54-9.54,25.53,25.53,0,1,0-47.17-7.73,39.81,39.81,0,0,0-39.52,65,16.74,16.74,0,0,0-9.57,21.65q.18.48.4.94a79.6,79.6,0,0,0-35.45,139.22,87.12,87.12,0,0,0-.85,67.77,51.88,51.88,0,0,0-36,35.5,110.93,110.93,0,0,0-28.56-17,51.5,51.5,0,0,0-26.94-41,22,22,0,1,0-36.71-4.62A51.53,51.53,0,0,0,1576.78,739a110.19,110.19,0,0,0-29.76-9,60,60,0,0,0-35-70.71,17.5,17.5,0,1,0-29.63-4.22,59.57,59.57,0,0,0-20.63,6.17,43,43,0,1,0-82.52,20.87,88.08,88.08,0,0,0-70.81,102.48q.29,1.61.65,3.21a88.09,88.09,0,0,0-71.63,66.2,56,56,0,0,0-94.78,20.57,40,40,0,1,0-77.84,17.07c-8.55,4.84-15,10.9-18.64,17.69a272.77,272.77,0,0,0-47.55-16A59,59,0,0,0,924,817.83a69.5,69.5,0,0,0-134.6-1.89c-1.55.31-3.08.68-4.59,1.1a39.48,39.48,0,0,0-8.4-39.7,73,73,0,0,0,40.76-93.66h.29a19.5,19.5,0,1,0-15.8-30.89,44.4,44.4,0,0,0,.3-5.11A43.82,43.82,0,0,0,798,629.52c1.13.1,2.27.16,3.43.16A37.5,37.5,0,1,0,766,604.43a43.92,43.92,0,0,0-41.27,14.41,20,20,0,0,0-30.93-3.3A73,73,0,0,0,581,676.69c0,1.69.08,3.36.19,5a50,50,0,0,0-25.56,36.07q-1.8-.09-3.63-.09A78.14,78.14,0,0,0,533.28,720a47.24,47.24,0,0,0-72.44-32.69,19.86,19.86,0,0,0-23.73-15q-.59.13-1.17.3a94.52,94.52,0,0,0-68.76-86.37,73,73,0,0,0,7.1-124.71,37.5,37.5,0,1,0-71-21.06,19.5,19.5,0,1,0-23.13,30.9,73.2,73.2,0,0,0-11.5,15.82,48.31,48.31,0,0,0-29.06-9.72h-1.77v-.62a86.75,86.75,0,0,0-12.2-44.49A48.37,48.37,0,0,0,247.88,407a48.38,48.38,0,0,0-14.26-94.61h-1.77v-.62a87.14,87.14,0,0,0-120-80.72A147.1,147.1,0,0,0,3.5,183.69H0V1563H2199V0A147.59,147.59,0,0,0,2069.31,98.3Z"/><path d="M387,424.69h.5a19.5,19.5,0,0,0,19.5-19.5c0-.08,0-.17,0-.25s0-.17,0-.25a20,20,0,1,0-20,20Z"/></g></g></svg>