<svg xmlns="http://www.w3.org/2000/svg" viewBox="0 0 1991.22 1099.43"><title>cloud_scene_05</title><g id="Layer_2" data-name="Layer 2"><g id="Layer_1-2" data-name="Layer 1"><path d="M1991.22,1094.94,1988.76,1.82a147.57,147.57,0,0,0-170.67,146,146.84,146.84,0,0,0,17.24,68.91,60,60,0,0,0-65.89,30.32,51.72,51.72,0,0,0-15.29-12.46,22,22,0,1,0-36.72-4.54,51.53,51.53,0,0,0-29.33,19.88,110.19,110.19,0,0,0-29.78-9,60,60,0,0,0-85.41-68.57,43,43,0,1,0-82.47,21.05,88.08,88.08,0,0,0-69.93,105.85l-1.76.3a27,27,0,0,0-47.53,25.55,87.84,87.84,0,0,0-22.2,40.55,56,56,0,0,0-94.73,20.78,40,40,0,1,0-77.8,17.24c-13.44,7.66-21.78,18.31-21.76,30.07.05,23.2,32.55,41.93,72.59,41.84,25.7-.06,48.25-7.86,61.1-19.58a55.61,55.61,0,0,0,10.37,2.69v4.41a88.06,88.06,0,0,0-15.49,94.49,44,44,0,0,0-69.8,7h-2.44a88,88,0,0,0-106.14-5.81,37.11,37.11,0,0,0-39-51.64c-.43.06-.9.12-1.34.21l-.06-.47A66.85,66.85,0,0,0,963.25,459a25.52,25.52,0,0,0-5.19-4.62,46.3,46.3,0,0,0-9-14.46c-3-9.62-8.31-20.5-15.76-31.19-11.48-16.47-25.14-28.45-36.3-33q-.25-1.37-.57-2.7a48.38,48.38,0,0,0-48.13-78.8,48.38,48.38,0,0,0-69.45,65.81c.33.47.68,1,1,1.43l-.51.36A86.8,86.8,0,0,0,753.06,391a75.78,75.78,0,0,0-65.59,33.62,88.06,88.06,0,0,0-114.17,46,110.27,110.27,0,0,0-40.8-14.24,27,27,0,0,0-53.67,5.29c0,.12,0,.25,0,.37a110.9,110.9,0,0,0-34.24,20.13,87.37,87.37,0,0,0-21.15-29.66,88,88,0,0,0,69.1-86.16c0-2.63-.13-5.24-.37-7.81a51.34,51.34,0,0,0,42.51-5.62,48.06,48.06,0,0,0,70.93,29.87,16.94,16.94,0,1,0,14.17-12.66A48,48,0,0,0,622.21,316a25.51,25.51,0,0,0,30.62-24.32h0a25.54,25.54,0,0,0-38.15-22.89,39.81,39.81,0,0,0-74.12-17A16.74,16.74,0,0,0,517,249.5q-.39.32-.77.67a79.56,79.56,0,0,0-123-19.25,43,43,0,0,0-57.09-13.69,48.39,48.39,0,0,0-42.3-24.73c-.57,0-1.18,0-1.77,0v-.62a87.17,87.17,0,0,0-87.37-87c-2.29,0-4.56.11-6.81.29a87.18,87.18,0,0,0-160.9,10,51.72,51.72,0,0,0-37-3l2.23,987.16ZM1890.61,361.39h0Zm-287.1-147.15h0Z"/></g></g></svg>