<svg xmlns="http://www.w3.org/2000/svg" viewBox="0 0 686.24 355.63"><defs><style>.cls-1{fill:#fff;}</style></defs><title>cloud_05</title><g id="Layer_2" data-name="Layer 2"><g id="Layer_3" data-name="Layer 3"><path class="cls-1" d="M642.26,219.14a43.78,43.78,0,0,0-27.42,9.61A95.33,95.33,0,0,0,547.74,168,81.88,81.88,0,0,0,450.57,55.5a128.12,128.12,0,0,0-233.4,64.31h-.3a99,99,0,0,0-72.18,31.13,66.34,66.34,0,0,0-99.95,57.21c0,2.16.11,4.29.31,6.39A23.91,23.91,0,1,0,28.36,249a58.39,58.39,0,0,0,111.5,32.83,99.27,99.27,0,0,0,138.06,15.6c16.58,9.5,43.67,15.7,74.3,15.7,36.73,0,68.38-8.91,82.9-21.75a95.16,95.16,0,0,0,178.19,4.79,44,44,0,1,0,29-77.07Z"/></g></g></svg>