<svg xmlns="http://www.w3.org/2000/svg" viewBox="0 0 2016 801.69"><title>cloud_scene_08</title><g id="Layer_2" data-name="Layer 2"><g id="Layer_2_copy" data-name="Layer 2 copy"><circle cx="1419" cy="212" r="22"/><path d="M970.71,369.84A35.31,35.31,0,0,0,952.31,374c-.82-.62-1.65-1.24-2.49-1.84A88,88,0,0,0,794.23,290a70,70,0,0,0-128.86,53.51,122.74,122.74,0,0,0-31.77-5.37A33.5,33.5,0,1,0,571,321.5c0,1.11.06,2.2.16,3.29a88.32,88.32,0,0,0-14.67-11.13,91,91,0,1,0-148.65-105A148.63,148.63,0,0,0,386,207h0a60,60,0,1,0-112.49,29.06c-.66,0-1.33-.06-2-.06a35.5,35.5,0,0,0-22.63,62.85,146.33,146.33,0,0,0-6.27,18.95,51.85,51.85,0,0,0-15.86,4.09,87,87,0,0,0-28.48-42.4A147.53,147.53,0,0,0,69.5,60a148.37,148.37,0,0,0-26.3,2.34A69.82,69.82,0,0,0,0,56V722.93a147.11,147.11,0,0,0,104.65-48.22A147.58,147.58,0,0,0,301,535.5c0-1.63,0-3.25-.09-4.87a91,91,0,0,0,38.11-24c0,.29,0,.58,0,.88a76.5,76.5,0,0,0,144.06,35.9,33.5,33.5,0,0,0,64.76,10,123,123,0,0,0,164.26-1.7,33.5,33.5,0,0,0,35.22-56.92q1.25-4.39,2.18-8.9a76.44,76.44,0,0,0,73,1.64A88,88,0,0,0,987,444c0-2.67-.13-5.31-.36-7.92a35.48,35.48,0,0,0-15.94-66.24Z"/><path d="M2016,98.75a87,87,0,0,0-26.54-38.45A147.51,147.51,0,0,0,1746,226.63a51,51,0,0,0-38.71,70.86,37.51,37.51,0,0,0-41.73,4.15,111,111,0,0,0-128.5-17.75,51,51,0,1,0-88.86,2.25,87.43,87.43,0,0,0-26.82,5.74,33.49,33.49,0,0,0-54.66-31.82c.18-1.83.27-3.68.27-5.55a57.5,57.5,0,1,0-114.16,9.78,111.82,111.82,0,0,0-43.95-2,51.49,51.49,0,0,0-81.25,58.21,110.39,110.39,0,0,0-6.05,13.72,65.95,65.95,0,0,0-69.52-13.68,39.09,39.09,0,1,0-41.73,56c-.07.79-.14,1.59-.17,2.39a66,66,0,0,0,117.4,44.42,111,111,0,0,0,8.36,13.53,33.5,33.5,0,1,0,37,54.54A88,88,0,0,0,1343,499.24a88.38,88.38,0,0,0,17.83,2.68l1.31,0c0,.3,0,.6-.05.9A88.05,88.05,0,0,0,1462,594.2a147.52,147.52,0,0,0,289-41.7q0-1.82,0-3.62a88.62,88.62,0,0,0,14,1.12,87.6,87.6,0,0,0,51.71-16.79A88.07,88.07,0,0,0,1885.47,608,147.59,147.59,0,0,0,2016,801.69Z"/></g></g></svg>