<svg xmlns="http://www.w3.org/2000/svg" viewBox="0 0 75.67 69.76"><title>icon_coffee</title><g id="Layer_2" data-name="Layer 2"><g id="Layer_15_copy" data-name="Layer 15 copy"><path d="M31.18,49.66C14,49.66,0,54.16,0,59.71s14,10,31.18,10,31.18-4.5,31.18-10S48.4,49.66,31.18,49.66Zm0,13.8c-10.2,0-18.47-2.66-18.47-5.95s8.27-6,18.47-6,18.47,2.66,18.47,6S41.38,63.47,31.18,63.47Z"/><path d="M70.34,17.13a13.45,13.45,0,0,0-8.26-2.72,15.46,15.46,0,0,0-1.64.1,43.72,43.72,0,0,0,.47-4.88,5.64,5.64,0,0,0-.37-2.23c-.46-1.34-1.6-2.81-4.1-4A29,29,0,0,0,50,1.54,103,103,0,0,0,31.18,0,103,103,0,0,0,12.33,1.54,29,29,0,0,0,5.92,3.43c-2.5,1.16-3.63,2.62-4.1,4a5.65,5.65,0,0,0-.37,2.08s0,0,0,.07c.35,19.93,6,37.26,14.34,46.9l.09.08C16.93,58,23.28,59.08,31,59.08s14.27-1.15,15.15-2.62h0a43.6,43.6,0,0,0,5.32-7.87,14.07,14.07,0,0,0,4.58.76c5.61,0,11.29-3,15.2-8.15a20.79,20.79,0,0,0,4.45-12.7A14.06,14.06,0,0,0,70.34,17.13Zm-39.16-3c-14.11,0-25.55-2.24-25.55-5s11.44-5,25.55-5,25.54,2.24,25.54,5S45.29,14.1,31.18,14.1ZM65.34,36.68c-2.47,3.23-6,5.24-9.31,5.24a7,7,0,0,1-1.46-.15,86.63,86.63,0,0,0,4.93-19.55,9.12,9.12,0,0,1,2.59-.4A6,6,0,0,1,65.83,23a6.83,6.83,0,0,1,2.42,5.54A13.37,13.37,0,0,1,65.34,36.68Z"/></g></g></svg>