<svg xmlns="http://www.w3.org/2000/svg" viewBox="0 0 52.07 100"><defs><style>.cls-1{fill:#181818;}</style></defs><title>icon_beer</title><g id="Layer_2" data-name="Layer 2"><g id="Layer_15_copy" data-name="Layer 15 copy"><path class="cls-1" d="M45.89,13.49a4.27,4.27,0,0,1-.2-1.59h.67a1.27,1.27,0,0,0,0-2.54H21.46L15.34.8A1.9,1.9,0,0,0,12.24,3l4.54,6.35H5.72a1.27,1.27,0,0,0,0,2.54h.67a4.27,4.27,0,0,1-.2,1.59C5.71,14.92,0,16.19,0,22.22V90.16c0,2.77,1.35,3,3.18,3.93v3.52A2.65,2.65,0,0,0,6,100H46a2.65,2.65,0,0,0,2.86-2.38V94.1c1.83-.91,3.18-1.16,3.18-3.93V22.22C52.07,16.19,46.36,14.92,45.89,13.49Zm1.87,48.24L4.42,80.79V46.51L47.75,27.45Z"/><polygon class="cls-1" points="21.89 61.72 27.75 58.4 33.62 61.72 32.28 55.12 37.24 50.56 30.55 49.8 27.75 43.67 24.96 49.8 18.27 50.56 23.23 55.12 21.89 61.72"/></g></g></svg>