<svg xmlns="http://www.w3.org/2000/svg" viewBox="0 0 2500 1843.87"><defs><style>.logo-cc-1{fill:#fff;}.logo-cc-2{fill:#da1f26;}</style></defs><title>logo_cc</title><g id="Layer_2" data-name="Layer 2"><g id="Layer_1-2" data-name="Layer 1"><path class="logo-cc-1" d="M1556.8,97.83c-236,0-449.06,98.39-600.34,256.39a721.84,721.84,0,0,0-170.74-20.37C388,333.86,65.64,656.24,65.64,1053.93S388,1774,785.71,1774a716.69,716.69,0,0,0,382.81-110.09A827.44,827.44,0,0,0,1556.8,1760c459,0,831.08-372.09,831.08-831.08S2015.79,97.83,1556.8,97.83Z"/><path class="logo-cc-2" d="M2500,880.82v82.3c-.78,4.47-1.77,8.85-2.28,13.29-4.26,35.8-7,71.83-12.9,107.37-19.22,115.49-60.76,222.84-122.49,322.1q-140.62,226-379.73,344.09a888.25,888.25,0,0,1-292.92,86.44c-22.63,2.61-45.25,5-67.88,7.45H743.52c-4.42-.82-8.83-2.14-13.29-2.41-88.56-5.58-173.77-25.76-255-61.3Q210,1664.12,80.31,1404.81A738.35,738.35,0,0,1,7.37,1162Q3.63,1131.16,0,1100.37v-79.86c.84-4.42,2.14-8.85,2.41-13.29C7,930.49,22.74,856,50.45,784.38q111.88-289,389.38-428.07c95.86-48,198-73.23,304.92-78.83,52.33-2.72,104.61.21,156.63,7.18,4.71.64,11.5-1.46,14.77-4.81q112.19-114.6,256-185.49c93.15-45.62,191.17-75,294.36-86.79,24.28-2.78,48.62-5.06,72.94-7.57h74.88c4.9.76,9.81,1.63,14.71,2.2,37.1,4.32,74.4,7,111.15,13.19,114.65,19.24,221.38,60.39,320.14,121.52Q2287.49,277.53,2406,517.3a886.15,886.15,0,0,1,86.52,293.13c2.67,23.48,5,47,7.45,70.39M1102.16,348.25c1.5,2,1.87,2.9,2.51,3.21a1000.27,1000.27,0,0,1,146.89,88.83c2.92,2.12,10.16,1.23,13.7-1,127.33-80.68,265.35-108.52,413.62-82.22,145.29,25.76,263.52,98.35,353.85,214.3C2135,702.59,2174,851,2145.78,1016c-18.93,110.64-63.25,209.9-138.58,293-137.45,151.58-309.57,214.28-512.18,187.74-124.73-16.34-232.41-70.14-321.52-160.21C1059.12,1221.09,944,1106.32,829.28,991.09,814,975.74,797,963.39,775,960.7c-38.46-4.71-73.35,14.49-90,49-14.81,30.84-12.9,65.62,19.24,97.22,127.88,125.53,254.63,252.22,382.37,377.88a617.4,617.4,0,0,0,70.14,59.69c93.31,67.76,198.52,105.23,312.45,120.31,89.42,11.81,178.15,9.28,266.19-10.51,167.94-37.72,307.06-123.44,416.63-255.7q135.71-164,164.26-375.91A736.83,736.83,0,0,0,2309.44,781c-25.41-130.25-80.51-246.79-168.81-346C1972.18,245.82,1760.25,161.38,1508,180.23c-97,7.24-188.79,35.74-275.14,80.95a726,726,0,0,0-130.74,87.08m-61.71,1320.49q-5.21-4.82-10.37-9.69c-52.28-49.36-104.86-98.42-156.52-148.42-10-9.67-19.2-14.38-33.35-14.05-52.33,1.28-104.69,1.5-156.26-10.14-256.38-58-405.25-336.73-310.76-582C447.72,711,654,593.27,857.49,629.59c91.19,16.28,171.23,54.88,236.93,122.63,80.12,82.72,162.63,163.07,243.62,244.94,18.44,18.64,39.61,27.14,65.14,23.5,33-4.71,59.28-20.43,71.21-52.8,11.69-31.85,6-62-18.09-86.44-85-86.11-168-174.38-256.42-256.83C1028.37,464.61,826.11,417,602.41,485.06c-300.88,91.42-477,402.12-408.23,708.7,62.65,279.34,307,475.39,592.82,475.64q119.72.12,239.47,0c4,0,7.9-.35,14-.66"/></g></g></svg>
