<svg xmlns="http://www.w3.org/2000/svg" viewBox="0 0 694.39 37.49"><defs><style>.cls-1{fill:#231f20;}</style></defs><title>logo_tb</title><g id="Layer_2" data-name="Layer 2"><g id="Layer_1-2" data-name="Layer 1"><path class="cls-1" d="M681.45,37.38c7.61,0,12.94-4,12.94-10.82v-.1c0-6-4-8.75-11.65-10.61-6.94-1.66-8.6-2.9-8.6-5.7V10c0-2.38,2.18-4.3,5.9-4.3,3.31,0,6.58,1.3,9.84,3.73l3.42-4.82A20.09,20.09,0,0,0,680.15.1c-7.2,0-12.38,4.3-12.38,10.51v.1c0,6.68,4.35,9,12.07,10.82,6.73,1.55,8.18,3,8.18,5.54v.1c0,2.74-2.49,4.56-6.42,4.56-4.5,0-8-1.71-11.44-4.71l-3.83,4.56a22.33,22.33,0,0,0,15.12,5.8m-59.23-6.32V6.42h7.15c7.61,0,12.58,5.23,12.58,12.32v.1c0,7.09-5,12.22-12.58,12.22Zm-6.37,5.8h13.51c11.39,0,19.26-7.92,19.26-18.12v-.1c0-10.2-7.87-18-19.26-18H615.84Zm-53.85,0h6.26V11.08l20,25.79h5.33V.62h-6.26V25.68L567.9.62H562ZM517.62,22.47,523.84,8l6.26,14.5ZM505,36.87h6.52l3.73-8.75h17.14l3.68,8.75h6.73L526.89.36H521Zm-40.9-18.28V6.42h9.27c4.71,0,7.51,2.12,7.51,6v.1c0,3.68-2.9,6.06-7.46,6.06Zm-6.37,18.28h6.37V24.23h8L481,36.87h7.51l-9.79-13.72c5.07-1.45,8.65-5,8.65-11v-.1a11,11,0,0,0-3-7.82C482.05,2,478.48.62,473.92.62H457.77ZM413.7,31.22V21.28h10.1c5,0,7.46,1.81,7.46,4.87v.1c0,3.26-2.64,5-7,5Zm0-15.33V6.27h9.16c4.09,0,6.37,1.76,6.37,4.61V11c0,3.31-2.75,4.92-6.84,4.92Zm-6.27,21h16.78c8.08,0,13.41-3.47,13.41-9.94v-.1c0-4.92-3-7.35-7.2-8.8,2.69-1.4,5.18-3.73,5.18-8.08v-.1a8.12,8.12,0,0,0-2.43-6C431.1,1.76,427.84.62,423.7.62H407.44Zm-75.54-5.8V6.42H339c7.61,0,12.58,5.23,12.58,12.32v.1c0,7.09-5,12.22-12.58,12.22Zm-6.37,5.8H339c11.39,0,19.26-7.92,19.26-18.12v-.1c0-10.2-7.87-18-19.26-18H325.53Zm-47.64,0H305v-5.7H284.26V21.44h18.17v-5.7H284.26V6.32h20.5V.62H277.89Zm-44-18.28V6.42h9.27c4.71,0,7.51,2.12,7.51,6v.1c0,3.68-2.9,6.06-7.46,6.06Zm-6.37,18.28h6.37V24.23h8l8.91,12.63h7.51l-9.79-13.72c5.07-1.45,8.65-5,8.65-11v-.1a11,11,0,0,0-3-7.82C251.8,2,248.22.62,243.67.62H227.51ZM188,31.64c-7.2,0-12.32-5.85-12.32-12.89v-.1c0-7,5-12.79,12.22-12.79s12.32,5.85,12.32,12.89v.1c0,7-5,12.79-12.22,12.79m-.1,5.85a18.57,18.57,0,0,0,19-18.74v-.1a19,19,0,0,0-37.9.1v.1a18.4,18.4,0,0,0,18.9,18.64m-60.22-.62h25.42v-5.8H134V.62h-6.37Zm-29,0H105V.62H98.64ZM53.9,22.47,60.11,8l6.26,14.5ZM41.32,36.87h6.52l3.73-8.75H68.71l3.68,8.75h6.73L63.17.36h-5.9Zm-29.82,0h6.42V6.52H29.41V.62H0v5.9H11.49Z"/></g></g></svg>