<svg xmlns="http://www.w3.org/2000/svg" viewBox="0 0 1162.33 376.08"><defs><style>.cls-1{fill:#231f20;}</style></defs><title>logo_tokidoki</title><g id="Layer_2" data-name="Layer 2"><g id="Layer_1-2" data-name="Layer 1"><path class="cls-1" d="M28,224.25c-5.51,2.81-9.42,4.07-12,4.07-5.25,0-9.31-1.25-12.07-3.71S0,218.48,0,213.66c0-5.51,4.85-14.29,14.53-26a147.58,147.58,0,0,1-2.09-21.26c0-6,1-10.35,3.28-13.16s5.48-4.32,10.06-4.32c3.67,0,9.83,3.27,18.06,9.65s18.71,16.09,31.29,29.09c7.46,3.07,12,4.9,13.87,5.79,35.6,15.08,60.34,26.45,74.74,34.22,34.81-17.72,65.06-31.17,89.91-40,11.4-13.31,21.08-23.17,28.93-29.67,8.24-6.53,14.65-9.8,19.64-9.8s8.88,1.51,11.5,4.7,3.91,8,3.91,14.47c0,4.58-1.17,11.4-3.52,20.3,9.55,12.61,14.4,21.08,14.4,25,0,4.64-1.57,8.18-4.59,10.47s-7.06,3.6-12.69,3.6a26.43,26.43,0,0,1-12.56-3.6c-4.73-2.29-9.7-5.94-15.2-10.67-22.77,4.12-52.75,15.25-89.25,33.64q40.84,21.88,70.55,43.83c26.43,4,43.82,7.92,52.09,12.13,8.11,4,12.3,10.59,12.3,19.48,0,12.38-11,18.53-33.11,18.53-9.43,13.81-17.54,20.68-24.87,20.68-11.12,0-18.59-12.15-22-37a449.55,449.55,0,0,0-82.85-60.41c-24.48,12.82-52.23,32-82.73,57.13-1.71,4.11-2.87,7.25-3.54,9.48-7.45,20.62-15.17,30.77-23,30.77-6.55,0-14.79-6-25-18.27C10.74,339,0,332.23,0,322.17c0-15.46,19.9-25.6,59.68-30.13,8.38-5,14-8.32,16.37-9.88,19.1-12.42,35.21-22.45,48.41-29.78,2.1-1.33,5.64-3.34,10.35-6.2Q78.67,218,48.56,212.53C40.19,217.58,33.24,221.64,28,224.25Z"/><path class="cls-1" d="M60.09,58.16c0-29.43,20-56.72,49.32-58.09,29.06-1.51,55,30.94,55.25,50.83.65-29.11,26-52.34,55.09-50.83,29.47,1.37,49.47,28.65,49.47,58.09,0,65.39-104.56,142.14-104.56,142.14S60.09,123.55,60.09,58.16Z"/><path class="cls-1" d="M224.47,337.92a17.67,17.67,0,0,1,0,35.34,17.52,17.52,0,0,1-17.68-17.74,17.51,17.51,0,0,1,17.68-17.6ZM245,355.52a20,20,0,0,0-6-14.44,20.51,20.51,0,1,0,0,29A20,20,0,0,0,245,355.52Zm-14.9-4.38a3.67,3.67,0,0,1-2.49,3.45,13.64,13.64,0,0,1-3.8.47h-3.54v-8h3.28a10.57,10.57,0,0,1,5,.84A3.57,3.57,0,0,1,230.1,351.14Zm-13.89-6.9v22.42h4.06v-8.84h3c2.09,0,3.66.2,4.46.72,1.43.93,2.22,2.7,2.22,5.1v1.83l.14.79v.41h3.66l-.14-.27c0-.14-.14-.66-.14-1.07a9.27,9.27,0,0,1-.13-1.73V362a6,6,0,0,0-1.18-3.6,5.73,5.73,0,0,0-3.93-2.14,8.94,8.94,0,0,0,3.41-1.14,4.85,4.85,0,0,0,2.09-4.44c0-2.75-1.05-4.7-3.53-5.6-1.19-.61-3.29-.84-6-.84Z"/><path class="cls-1" d="M387.39,191.08H406V157.7h24.61v33.38h22.12V209.4H430.59v59.42c0,10,.66,15.16,11.79,15.16a51.43,51.43,0,0,0,10.34-.7v18.91c-5.37.32-10.74,1.25-16,1.25-25.8,0-30.23-9.95-30.77-28.54V209.4h-18.6Z"/><path class="cls-1" d="M464.75,246.58c0-34,20.29-58.46,56.15-58.46s56.15,24.5,56.15,58.46c0,34.22-20.42,58.8-56.15,58.8S464.75,280.79,464.75,246.58Zm87.83,0c0-19.05-9.68-39.2-31.67-39.2s-31.66,20.15-31.66,39.2c0,19.49,9.68,39.38,31.66,39.38S552.58,266.07,552.58,246.58Z"/><path class="cls-1" d="M597.72,148.6h24.49v87.52l44.49-45h30L654.12,232l46.6,70.31H670.87l-34-54-14.65,14.18v39.78H597.72Z"/><path class="cls-1" d="M712.9,148.6h24.48v23.25H712.9Zm0,42.48h24.48V302.31H712.9Z"/><path class="cls-1" d="M868.39,302.31H845.34v-15h-.51c-6.43,12.7-20.56,18.06-34.44,18.06-35.21,0-52.07-26-52.07-59.47,0-40.19,23.81-57.79,48.16-57.79,13.87,0,29.45,5.07,37,17.37h.38V148.6h24.5ZM813.66,286c22,0,31.17-19.89,31.17-39.38,0-24.48-11.89-39.2-30.75-39.2-23.06,0-31.3,20.5-31.3,40.5C782.78,267,792.33,286,813.66,286Z"/><path class="cls-1" d="M889.6,246.58c0-34,20.4-58.46,56.27-58.46s56.14,24.5,56.14,58.46c0,34.22-20.41,58.8-56.14,58.8S889.6,280.79,889.6,246.58Zm87.8,0c0-19.05-9.55-39.2-31.53-39.2S914,227.52,914,246.58c0,19.49,9.81,39.38,31.82,39.38S977.4,266.07,977.4,246.58Z"/><path class="cls-1" d="M1022.69,148.6h24.46v87.52l44.36-45h30.1L1079.09,232l46.59,70.31h-29.84l-34-54-14.67,14.18v39.78h-24.46Z"/><path class="cls-1" d="M1137.86,171.85h24.48V148.6h-24.48Zm0,130.46h24.48V191.08h-24.48Z"/></g></g></svg>