<svg xmlns="http://www.w3.org/2000/svg" viewBox="0 0 359.07 64.76"><defs><style>.cls-1{fill:#231f20;}</style></defs><title>logo_bebe</title><g id="Layer_2" data-name="Layer 2"><g id="Layer_1-2" data-name="Layer 1"><path class="cls-1" d="M66.73,40.31A14.72,14.72,0,0,1,60,52.93q-7.29,5.12-20.7,5.13a46.88,46.88,0,0,1-18-3.15q-9.76-4.14-9.76-12.42Q11.53,23,38.94,23q27.8,0,27.8,17.35m13-1.28q0-10.06-10.35-16.46Q58.55,16,40.12,16q-17.45,0-27.5,7.22h-.39V1.78A1.64,1.64,0,0,0,10.55,0H1.78Q0,.2,0,1.77v60q0,1.87,1.78,1.77l1.28-.1H8.18l1.48.1q1.67.1,1.68-1.77V57.66h.39q9,7.1,26.22,7.1,22,0,33-8.77,8.77-6.9,8.77-17m82.09-2.76H102.39q0-5.42,8.72-9.61T132,22.47q28.19,0,29.87,13.8m11,4.19a6.65,6.65,0,0,0,2-4.88,6.35,6.35,0,0,0-.69-3.06q-3.55-8-14.09-12.45T133.54,15.6q-22.57,0-34.1,7.48Q89.09,29.68,89.09,41.2q0,10.34,10.55,16.55,11.14,6.6,30.75,6.6,17.45,0,27.4-3.25A37.1,37.1,0,0,0,170.9,54h-.1a1.47,1.47,0,0,0,.39-1.09,1.63,1.63,0,0,0-1.28-1.68l-6.31-1.87h-.49a1.59,1.59,0,0,0-1.48.89,23.84,23.84,0,0,1-5,3.45q-7.69,3.84-24.35,3.84-29.87,0-29.87-15.08h65.55a6.64,6.64,0,0,0,4.88-2M251,40.31a14.72,14.72,0,0,1-6.7,12.62q-7.29,5.12-20.7,5.13a46.88,46.88,0,0,1-18-3.15q-9.76-4.14-9.76-12.42,0-19.52,27.4-19.52Q251,23,251,40.31M264,39Q264,29,253.62,22.57,242.78,16,224.35,16q-17.45,0-27.5,7.22h-.39V1.78A1.64,1.64,0,0,0,194.78,0H186q-1.78.2-1.78,1.77v60q0,1.87,1.78,1.77l1.28-.1h5.12l1.48.1q1.67.1,1.67-1.77V57.66h.4q9,7.1,26.22,7.1,22,0,33-8.77Q264,49.09,264,39m82.09-2.76H286.62q0-5.42,8.73-9.61t20.85-4.19q28.19,0,29.87,13.8m13-.69a6.35,6.35,0,0,0-.69-3.06q-3.55-8-14.09-12.45T317.77,15.6q-22.57,0-34.11,7.48-10.35,6.6-10.35,18.12,0,10.34,10.55,16.55,11.14,6.6,30.75,6.6,17.45,0,27.4-3.25A37.12,37.12,0,0,0,355.13,54H355a1.47,1.47,0,0,0,.4-1.09,1.63,1.63,0,0,0-1.28-1.68l-6.31-1.87h-.49a1.59,1.59,0,0,0-1.48.89,23.81,23.81,0,0,1-5,3.45q-7.68,3.84-24.35,3.84-29.87,0-29.87-15.08h65.55a6.9,6.9,0,0,0,6.9-6.9"/></g></g></svg>