<svg xmlns="http://www.w3.org/2000/svg" viewBox="0 0 140.27 279.49"><defs><style>.pot_01_cls-1{fill:red;}.pot_01_cls-2{fill:#fff;}</style></defs><title>pot_01</title><g id="Layer_2" data-name="Layer 2"><g id="Layer_1-2" data-name="Layer 1"><path d="M82.23,177.49c-.37-18.43-4-40-4-40,35,0,40-24,40-24-21-2-30,3-42,13-1-10-5-23-5-23h-11s5,6,7,26c-25-16-61-7-61-7a79.88,79.88,0,0,0,32,21c9,3,31-4,31-4,3.52,18.61,3.75,30.64,3.11,38H.27l4.43,26h6.57l19,76h82l19-76h4.57l4.43-26Z"/><path class="pot_01_cls-1" d="M41.09,43.07S25.86,30.38,32.63,14.31C39.55-2.13,63.08-1.76,73.23,2.47S90.15,19.39,86.77,28.69a44.22,44.22,0,0,1-8.46,14.38s13-13.33,27.07-11.84c16.07,1.69,19.46,20.3,18.61,27.92-.77,6.93-6.18,24.56-22.84,22-11-1.69-18.61-11.84-18.61-11.84S92.69,82,88.46,90.45s-16.92,16.07-35.53,11.84S39.39,82,39.39,82l4.23-10.15S36.86,93,17.4,85.37-1.21,59.15,1.33,53.22s9.31-16.92,22-16.07C34.58,37.9,41.09,43.07,41.09,43.07Z"/><circle class="pot_01_cls-2" cx="62.27" cy="56.49" r="10"/></g></g></svg>
