<svg xmlns="http://www.w3.org/2000/svg" viewBox="0 0 2022.02 814.93"><title>water_scene_02</title><g id="Layer_2" data-name="Layer 2"><g id="Layer_1-2" data-name="Layer 1"><path d="M76.78,86c0-7.82,6.7-14.16,15-14.16s15,6.34,15,14.16-6.7,14.16-15,14.16S76.78,93.85,76.78,86Zm317.42-.45c8.82,0,16-6.77,16-15.11s-7.15-15.11-16-15.11-16,6.77-16,15.11S385.38,85.58,394.2,85.58Zm130.24,0c8,0,14.45-6.12,14.45-13.67S532.42,58.2,524.44,58.2,510,64.32,510,71.87,516.46,85.54,524.44,85.54ZM662,100.19c22.19,0,40.17-17,40.17-38s-18-38-40.17-38-40.17,17-40.17,38S639.77,100.19,662,100.19Zm-60.8,21.4c6.25,0,11.31-4.79,11.31-10.7s-5.06-10.7-11.31-10.7-11.31,4.79-11.31,10.7S594.91,121.59,601.16,121.59ZM765.77,71.87c10.06,0,18.21-7.71,18.21-17.22s-8.15-17.22-18.21-17.22-18.21,7.71-18.21,17.22S755.71,71.87,765.77,71.87ZM321.33,103.52a8.51,8.51,0,1,0-9-8.5A8.75,8.75,0,0,0,321.33,103.52ZM23.87,24.22a6.81,6.81,0,0,0,7-6.61,6.81,6.81,0,0,0-7-6.61,6.81,6.81,0,0,0-7,6.61A6.81,6.81,0,0,0,23.87,24.22Zm144.86,38c11.09,0,20.08-8.5,20.08-19s-9-19-20.08-19-20.08,8.5-20.08,19S157.64,62.2,168.73,62.2ZM278.41,62a6.62,6.62,0,1,0-7-6.61A6.81,6.81,0,0,0,278.41,62ZM621.79,163a6.62,6.62,0,1,0-7-6.61A6.81,6.81,0,0,0,621.79,163ZM777,86.53a7,7,0,1,0,7-6.61A6.81,6.81,0,0,0,777,86.53ZM11,121.59c7.76,0,14-6,14-13.28S18.72,95,11,95A14.31,14.31,0,0,0,0,100v16.6A14.3,14.3,0,0,0,11,121.59ZM1890.1,99.75v0a49.87,49.87,0,0,0-22.88-5.49c-26.46,0-47.92,20.29-47.92,45.31a43.52,43.52,0,0,0,.54,6.44,91.42,91.42,0,0,0-25.49-3.61,89.74,89.74,0,0,0-51.52,16,107.52,107.52,0,0,0-8.26-8.7c12.26-9.1,20.17-23.21,20.17-39.1,0-27.45-23.54-49.72-52.56-49.72s-52.57,22.26-52.57,49.72a47.21,47.21,0,0,0,.79,8.31,114.15,114.15,0,0,0-77.89,34.86,82.3,82.3,0,0,0-49-17.13,10.49,10.49,0,0,0,.34-2.57c0-6.26-5.37-11.34-12-11.34s-12,5.08-12,11.34a10.75,10.75,0,0,0,1.35,5.12A80.27,80.27,0,0,0,1458.62,166a86.38,86.38,0,0,0-24.39-28.57A21.86,21.86,0,0,0,1440,122.7c0-12.51-10.73-22.65-24-22.65-12.2,0-22.24,8.62-23.74,19.78a93.22,93.22,0,0,0-26-.34c-7.36-30.7-36.36-53.62-71-53.62-32.15,0-59.41,19.7-69.09,47a222.5,222.5,0,0,0-39.71-3.6,220.2,220.2,0,0,0-48.45,5.4,18.07,18.07,0,0,0-17.51-12.54,18.64,18.64,0,0,0-13.17,5.34,74.25,74.25,0,0,0-42.66-13.31c-39.69,0-71.87,30.44-71.87,68a65.36,65.36,0,0,0,15,41.59q-4.21,6.47-7.9,13.27a206.25,206.25,0,0,0-77.34-43.78,74,74,0,0,0,.64-9.52c0-42.75-36.65-77.41-81.85-77.41a84,84,0,0,0-57.29,22.14,126.85,126.85,0,0,0-28.55-3.26c-57.68,0-105.82,38.56-117.21,89.9-11.2-26.91-38-46.38-70-48.36-23.47-29.79-61-49.09-103.31-49.09a134.27,134.27,0,0,0-58,13,49.87,49.87,0,0,0-22.88-5.49c-26.46,0-47.92,20.29-47.92,45.31a43.55,43.55,0,0,0,.54,6.44,91.42,91.42,0,0,0-25.49-3.61,89.74,89.74,0,0,0-51.52,16,107.49,107.49,0,0,0-8.26-8.7c12.26-9.1,20.17-23.21,20.17-39.1,0-27.45-23.54-49.72-52.56-49.72S166.5,94,166.5,121.49a47.21,47.21,0,0,0,.79,8.31,114.15,114.15,0,0,0-77.77,35,82.3,82.3,0,0,0-49-17.13,10.49,10.49,0,0,0,.34-2.57c0-6.26-5.37-11.34-12-11.34s-12,5.08-12,11.34a10.75,10.75,0,0,0,1.35,5.12,82.12,82.12,0,0,0-18.21,7V814.93H2022V108.75A135.06,135.06,0,0,0,1890.1,99.75Zm-733.59.32c18.74,0,33.94-14.37,33.94-32.11s-15.2-32.09-33.94-32.09S1122.57,50.25,1122.57,68,1137.76,100.07,1156.51,100.07Zm90.31-25.53c8,0,14.45-6.12,14.45-13.67s-6.47-13.67-14.45-13.67-14.45,6.12-14.45,13.67S1238.84,74.54,1246.82,74.54Zm94.35,1c18.19,0,32.94-13.95,32.94-31.15s-14.75-31.15-32.94-31.15-32.94,13.95-32.94,31.15S1323,75.52,1341.17,75.52Zm233.58,13.67c8.27,0,15-6.34,15-14.16s-6.7-14.16-15-14.16-15,6.34-15,14.16S1566.48,89.19,1574.75,89.19ZM1877.2,74.58c8.82,0,16-6.77,16-15.11s-7.15-15.11-16-15.11-16,6.77-16,15.11S1868.38,74.58,1877.2,74.58Zm130.24,0c8,0,14.45-6.12,14.45-13.67s-6.47-13.67-14.45-13.67S1993,53.32,1993,60.87,1999.46,74.54,2007.44,74.54Zm-203.11,18a8.51,8.51,0,1,0-9-8.5A8.75,8.75,0,0,0,1804.33,92.52ZM1066.79,51.21a7.89,7.89,0,0,0,8.1-7.67,8.11,8.11,0,0,0-16.2,0A7.89,7.89,0,0,0,1066.79,51.21Zm69.75-24.78c7.72,0,14-5.91,14-13.21S1144.26,0,1136.54,0s-14,5.91-14,13.21S1128.82,26.43,1136.54,26.43ZM1494,110.58c7.75,0,14-5.95,14-13.28S1501.72,84,1494,84s-14,5.95-14,13.28S1486.22,110.58,1494,110.58Zm12.9-97.36a6.81,6.81,0,0,0,7-6.61,7,7,0,0,0-14,0A6.81,6.81,0,0,0,1506.87,13.22Zm144.86,38c11.09,0,20.08-8.5,20.08-19s-9-19-20.08-19-20.08,8.5-20.08,19S1640.64,51.2,1651.73,51.2ZM1761.41,51a6.62,6.62,0,1,0-7-6.61A6.81,6.81,0,0,0,1761.41,51Zm-663.8,39.65a6.62,6.62,0,1,0-7-6.61A6.81,6.81,0,0,0,1097.61,90.63Z"/></g></g></svg>