<svg xmlns="http://www.w3.org/2000/svg" viewBox="0 0 1932 563"><title>water_scene_01</title><g id="Layer_2" data-name="Layer 2"><g id="Layer_1-2" data-name="Layer 1"><path d="M0,563H1932V21h-4.5c-51.16,0-94.67-8.77-110.8-21h-1.25c-11.24,13.82-53.19,24.08-103.22,24.08-34.08,0-64.42-4.76-83.84-12.17A189.39,189.39,0,0,1,1581,17.59c-31.31,0-58.8-6.71-74.4-16.81-12,4.68-26.91,7.15-43,6.49a116.47,116.47,0,0,1-28.48-4.65c-11.45,13.26-36.2,21.81-64.52,20.65a113.43,113.43,0,0,1-34-6.48c-17.06,3.9-38.21,6.21-61.11,6.21-39.57,0-73.9-6.89-91-17C1172,15.56,1148.24,22,1121,22c-24.63,0-46.4-5.27-59.62-13.33C1052.87,16.73,1038.86,22,1023,22c-13,0-24.85-3.56-33.37-9.32a200.32,200.32,0,0,1-42.41,4.4c-28.7,0-54.74-5.69-73.85-14.93C859.45,9.37,838,14,814,14c-24.34,0-46-4.75-59.9-12.12-17,11.73-42.67,19.21-71.4,19.21A152.36,152.36,0,0,1,643.16,16C626.37,22.16,602.5,26,576,26c-28.87,0-54.63-4.55-71.5-11.68A261.12,261.12,0,0,1,474,16.08c-30,0-57.37-4.94-78.29-13.1C382.9,8.56,365.36,12,346,12c-22.61,0-42.74-4.69-55.74-12H290c-7.48,13.77-35.07,24-68,24-20.86,0-39.58-4.11-52.4-10.63-5.65.46-11.45.71-17.37.71C124.41,14.08,99.1,8.74,80.17,0H76.93C67.5,7.31,52.9,12,36.5,12,22.73,12,10.24,8.69,1,3.31V199H0Z"/></g></g></svg>