<svg xmlns="http://www.w3.org/2000/svg" viewBox="0 0 2014 1260.67"><title>water_scene_03</title><g id="Layer_2" data-name="Layer 2"><g id="Layer_1-2" data-name="Layer 1"><path d="M1360,504.67a15,15,0,1,1,15,15A15,15,0,0,1,1360,504.67Zm-143-20a10,10,0,1,0-10-10A10,10,0,0,0,1217,484.67Zm-210,84a16,16,0,1,0-16-16A16,16,0,0,0,1007,568.67Zm513.5-191a13.5,13.5,0,1,0-13.5-13.5A13.5,13.5,0,0,0,1520.5,377.67Zm469.43,203.49a76,76,0,0,0-69.46,106.74l-.21.47a209,209,0,0,0-37.66,23.14,207.55,207.55,0,0,0-33.3-14.89c.56,0,1.13.06,1.7.06a27,27,0,1,0-13.94-3.87,207.56,207.56,0,0,0-21.13-4.7c.07-.92.07-1.92.07-2.92a76,76,0,0,0-143-35.76,86.17,86.17,0,0,0-10.35-1.74,86.66,86.66,0,0,0-56.12-58.17,45.49,45.49,0,1,0-75.07,10.29,86.46,86.46,0,0,0-37.78,61.72,73,73,0,0,0-11.83,3.31,76,76,0,0,0-84-39.89,76,76,0,0,0-144.47,39.92,52.27,52.27,0,0,0-32.83,12A76,76,0,0,0,1092,696.06a75.63,75.63,0,0,0-40-11.38h-.41a70.25,70.25,0,0,0,.41-7.51,69.51,69.51,0,0,0-133.33-27.41,46.37,46.37,0,0,0-32.76,15.41,73.5,73.5,0,0,0-64.92-69v-1.5A75,75,0,1,0,679,628.4a73.75,73.75,0,0,0-32,26.06,73.55,73.55,0,0,0-11.3-7.35c.2-2.12.31-4.27.31-6.44a69,69,0,1,0-131.59,29.12,75.41,75.41,0,0,0-10,3.76,76,76,0,0,0-123.8-32.86A76.15,76.15,0,0,0,322.41,588a46.49,46.49,0,1,0-70.93,10.77,76.09,76.09,0,0,0-27.11,83.31,75.62,75.62,0,0,0-13.18,6.22,76,76,0,0,0-80.69-37.27A76,76,0,0,0,0,607.25v653.42H2014V585.06A76,76,0,0,0,1989.93,581.16ZM913.5,550.67a30.5,30.5,0,1,0-30.5-30.5A30.5,30.5,0,0,0,913.5,550.67Zm-260-265a17.5,17.5,0,1,0-17.5-17.5A17.5,17.5,0,0,0,653.5,285.67ZM241,448.67a9,9,0,1,0-9-9A9,9,0,0,0,241,448.67Zm405.5-347a5.5,5.5,0,1,0-5.5-5.5A5.5,5.5,0,0,0,646.5,101.67ZM1390,12a6,6,0,1,1,6-6A6,6,0,0,1,1390,12Z"/></g></g></svg>