<svg xmlns="http://www.w3.org/2000/svg" viewBox="0 0 2068 906"><title>water_scene_04</title><g id="Layer_2" data-name="Layer 2"><g id="Layer_1-2" data-name="Layer 1"><g id="Layer_2-2" data-name="Layer 2"><g id="Layer_14" data-name="Layer 14"><circle cx="1837.5" cy="230.5" r="30.5"/><circle cx="275.5" cy="230.5" r="30.5"/><circle cx="873.5" cy="16.5" r="16.5"/><circle cx="651" cy="170" r="25"/><path d="M1967,352h-1.81a63,63,0,1,0-118.55,41,62.64,62.64,0,0,0-11.07,4.79A62,62,0,0,0,1776,353h-.83a101.13,101.13,0,0,0-51.11-101.32,50,50,0,1,0-98.1,0,101.08,101.08,0,0,0-50.72,72.52,63.13,63.13,0,0,0-21.72-15.27q.48-4.91.49-10a101,101,0,0,0-176.6-67,100.55,100.55,0,0,0-60.4-20h-.18q.18-3,.18-6a101,101,0,1,0-199.77,21.17,100.62,100.62,0,0,0-63.53,27.37,101,101,0,0,0-154.17-31.28,101,101,0,0,0-189.26,68.29,62.9,62.9,0,0,0-25.39,14.55q.13-2.53.13-5.1A101,101,0,0,0,526,218.33c0-.78.06-1.56.06-2.35a63,63,0,1,0-111.88,39.74,101.45,101.45,0,0,0-39.39,41.92A101,101,0,0,0,246,320.85a63,63,0,1,0-115.18,50.62A101.12,101.12,0,0,0,4.85,437H0V906H2066V473.08A101.07,101.07,0,0,0,1967,352Z"/></g></g></g></g></svg>