<svg xmlns="http://www.w3.org/2000/svg" viewBox="0 0 2030 1588"><title>water_scene_05</title><g id="Layer_2" data-name="Layer 2"><g id="Layer_16" data-name="Layer 16"><circle cx="1237" cy="251" r="31"/><circle cx="547" cy="467" r="31"/><circle cx="853" cy="169" r="31"/><circle cx="588.5" cy="91.5" r="15.5"/><circle cx="1050.5" cy="23.5" r="23.5"/><circle cx="1265.5" cy="366.5" r="45.5"/><circle cx="980" cy="366" r="59"/><path d="M0,1588H2030V921.76a87.62,87.62,0,0,0-68-15.2c0-.69,0-1.37,0-2.07a87.41,87.41,0,0,0-39.14-72.92,52,52,0,1,0-82.73-58.93,87.85,87.85,0,0,0-24.19-19.22c0-1,.05-1.94.05-2.92a87.51,87.51,0,0,0-171.17-25.66A87.79,87.79,0,0,0,1612,699.5a87.51,87.51,0,1,0-120.4-101.17A88,88,0,0,0,1476.31,584a55,55,0,0,0-104.44-34.52,54.94,54.94,0,0,0-15-8.73,87.57,87.57,0,0,0-107-71.3c0-1,.05-2,.05-2.93a87.5,87.5,0,1,0-168.55,33A54.89,54.89,0,0,0,1026.66,526a87.53,87.53,0,0,0-55.94-36.5,87.5,87.5,0,1,0-169.41,37.08A87.3,87.3,0,0,0,770.5,521a88.22,88.22,0,0,0-12.33.87,55,55,0,1,0-93.41-1.7,87.72,87.72,0,0,0-55.7,54A59.5,59.5,0,0,0,546.41,663a87.12,87.12,0,0,0-40,9.71A87.5,87.5,0,1,0,332,662.5a87.4,87.4,0,0,0,37.76,72,87.7,87.7,0,0,0-43.44,32.11A87.5,87.5,0,0,0,195,881.34a87.92,87.92,0,0,0-12.13,10,87.59,87.59,0,0,0-84,.71A87.55,87.55,0,0,0,0,874Z"/></g></g></svg>