<svg xmlns="http://www.w3.org/2000/svg" viewBox="0 0 1250 354"><title>Asset 2</title><g id="Layer_2" data-name="Layer 2"><g id="Layer_3" data-name="Layer 3"><path d="M1249,142V7a3.25,3.25,0,0,0-4.88-2.8A70.39,70.39,0,0,1,1209.5,13a69.79,69.79,0,0,1-36.69-10,3.2,3.2,0,0,0-3.73.26C1153.92,15.85,1130,24,1103,24c-28.62,0-53.84-9.17-68.76-23.11A3.25,3.25,0,0,0,1032,0a3.2,3.2,0,0,0-1.55.4C1013.23,9.95,987.61,16,959,16a194.63,194.63,0,0,1-23.36-1.39,3.23,3.23,0,0,0-2,.44C924.29,20.6,911.77,24,898,24c-13.35,0-25.53-3.2-34.74-8.45l-6.3,1C844.29,30,820.84,39,794,39c-27.24,0-51-9.31-63.53-23.1a3.27,3.27,0,0,0-2.75-1.08A432.61,432.61,0,0,1,684,17C640.36,17,600.77,10.71,571.64.5a3.21,3.21,0,0,0-2.54.18C549.53,10.74,522,17,491.5,17c-30.81,0-58.59-6.39-78.19-16.63A3.19,3.19,0,0,0,411.82,0h-1.55a3.2,3.2,0,0,0-1.44.35A118,118,0,0,1,355.5,13,118,118,0,0,1,304.41,1.44a3.26,3.26,0,0,0-3.79.7A34.4,34.4,0,0,1,275.5,13,34.39,34.39,0,0,1,250.88,2.66a3.28,3.28,0,0,0-4.28-.38A135.37,135.37,0,0,1,167,28,135.39,135.39,0,0,1,85.21.65,3.22,3.22,0,0,0,83.27,0H81a3.24,3.24,0,0,0-2,.73A72.68,72.68,0,0,1,33,17,72.65,72.65,0,0,1,4.5,11.2a3.23,3.23,0,0,0-4.5,3V354H1250V142Z"/></g></g></svg>