<svg xmlns="http://www.w3.org/2000/svg" viewBox="0 0 1249 181"><title>waves_02</title><g id="Layer_2" data-name="Layer 2"><g id="Layer_3" data-name="Layer 3"><path d="M1150.5,24c-25.9,0-49.66-3.49-68.22-9.31C1070.92,35.09,1034.8,50,992,50c-34.85,0-65.26-9.88-81.5-24.57A77,77,0,0,1,887,29c-14.38,0-27.4-3.71-36.81-9.69C836.25,26,818.86,30,800,30c-23.73,0-45.12-6.31-60.25-16.41C712.93,20.76,679.83,25,644,25c-53.21,0-100.42-9.34-130-23.77A118.29,118.29,0,0,1,474.5,8,118.6,118.6,0,0,1,443,3.76C423.32,16.09,392.79,24,358.5,24c-28.22,0-53.89-5.36-73.07-14.13C266.2,27.51,242.13,38,216,38c-28.21,0-54-12.23-73.94-32.49A34.43,34.43,0,0,1,115.5,18a34.43,34.43,0,0,1-27-13C65.78,14.4,35,21.14,0,23.77V181H1249V0h-.65C1231.41,14.16,1194,24,1150.5,24Z"/></g></g></svg>