<svg xmlns="http://www.w3.org/2000/svg" viewBox="0 0 1131.5 512.85"><defs><style>.whale_01_cls-1{fill:red;stroke:#000;stroke-miterlimit:10;}.whale_01_cls-2{fill:#fff;}</style></defs><title>whale_01</title><g id="Layer_2" data-name="Layer 2"><g id="Layer_2-2" data-name="Layer 2"><path d="M90,370.79S86.62,165,203.5,62.29C311-32.21,502.84-5.39,585,51.79c62.5,43.5,97.35,91.59,118,126,16.5,27.5,121.5,97.5,198.5,15.5-84-50-97.5-67.5-109-140,96.5,5.5,164,59,175,94,39.5-2.5,118.5,17.5,164,57-29.5,31.5-82.5,42.5-173.5,14.5-15,28-68,155-298.5,237.5,17,13,39,37,39,37s-48,44-165,0c-68,19-259,45-427-40-22-5-65.5-.5-106.5-23.5C17,402.79,63.5,372.29,90,370.79Z"/><path class="whale_01_cls-1" d="M290.5,430.29h85s-7,33-43,33S290.5,430.29,290.5,430.29Z"/><circle class="whale_01_cls-2" cx="210.5" cy="381.29" r="21"/><circle class="whale_01_cls-2" cx="433.5" cy="397.29" r="21"/></g></g></svg>
