<svg xmlns="http://www.w3.org/2000/svg" viewBox="0 0 708 648.65"><defs><style>.whale_02_cls-1{fill:#fff;}.whale_02_cls-2{fill:red;}</style></defs><title>whale_02</title><g id="Layer_2" data-name="Layer 2"><g id="Layer_2-2" data-name="Layer 2"><path d="M84,431.65s-1-129,52-188,128-76,193-80c6-27,4-35-14-46s-115-41-134-109c0,0,29-23,106,6,35,14,75.5,51.5,75.5,51.5l50-40s42-38,126-15c-19,37-34,61-105,89-18,12-44,18-47,35s1,28,1,28,128-10,194,82c51.13,71.27,49.5,166.5,48.5,209.5,31-25,78-29,78-29s-15,103-138,170-283,66-386,22-144-107-184-196C37,417.65,84,431.65,84,431.65Z"/><circle class="whale_02_cls-1" cx="211.5" cy="510.15" r="24"/><circle class="whale_02_cls-1" cx="515.5" cy="510.15" r="24"/><path class="whale_02_cls-2" d="M319.5,557.15s43-11,91,1c5,1,3,7-3,14-7.94,9.27-37,27-37,27s-3.5,3.13-10,0c-27-13-43-30-43-30S307.5,560.15,319.5,557.15Z"/></g></g></svg>
