<svg xmlns="http://www.w3.org/2000/svg" viewBox="0 0 1324.55 845.43"><defs><style>.whale_01_cls-1{fill:#a91c25;}.whale_01_cls-2{fill:#fff;}</style></defs><title>whale_01</title><g id="Layer_2" data-name="Layer 2"><g id="Layer_3" data-name="Layer 3"><path class="whale_01_cls-1" d="M200,820.9s25.77-20.25,55.14-54.81c-15.07,7.6-37.87,18.07-56.64,22.31-31,7-32,10-32,14s-1,9,5,11c4.84,1.61,14.22,6.46,28.15,7.77Z"/><path d="M3.51,591.4s-15-205,17-331S115,79.9,235,34.9s267-56,506,25c118,41,205,179,244,338s76,220,124,219,68-1,106-50,41-55,80-45c30,8,32,9,28,13s-54,40-62,82-7,71,48,129l8,8a58.46,58.46,0,0,1-29,10c-17,1-31,8-70-43s-71-78-121-63a1141.58,1141.58,0,0,0-109,39c-22,9-261.5,141.5-648.5,98.5-13,6-42.5,30.5-138.5,47.5-20,3-27,5-24-4,2-2,23-18,23-18s56-44,97-113c2-5,7-16-8-17S73,667.9,3.51,591.4Z"/><circle class="whale_01_cls-2" cx="241.51" cy="592.4" r="19"/></g></g></svg>
